<?xml version="1.0" encoding="utf-8"?>
<!-- Generator: Adobe Illustrator 25.0.0, SVG Export Plug-In . SVG Version: 6.00 Build 0)  -->
<svg version="1.1" id="Layer_1" xmlns="http://www.w3.org/2000/svg" xmlns:xlink="http://www.w3.org/1999/xlink" x="0px" y="0px"
	 viewBox="0 0 250 150" style="enable-background:new 0 0 250 150;" xml:space="preserve">
<style type="text/css">
	.st0{fill:#2C046E;stroke:#F95407;stroke-miterlimit:10;}
	.st1{fill:#2D046E;stroke:#F95407;stroke-miterlimit:10;}
	.st2{fill:#2E046F;stroke:#F95407;stroke-miterlimit:10;}
	.st3{fill:#2F046F;stroke:#F95407;stroke-miterlimit:10;}
	.st4{fill:#30046F;stroke:#F95407;stroke-miterlimit:10;}
	.st5{fill:#31046F;stroke:#F95407;stroke-miterlimit:10;}
	.st6{fill:#320470;stroke:#F95407;stroke-miterlimit:10;}
	.st7{fill:#330470;stroke:#F95407;stroke-miterlimit:10;}
	.st8{fill:#340470;stroke:#F95407;stroke-miterlimit:10;}
	.st9{fill:#350471;stroke:#F95407;stroke-miterlimit:10;}
	.st10{fill:#360471;stroke:#F95407;stroke-miterlimit:10;}
	.st11{fill:#370371;stroke:#F95407;stroke-miterlimit:10;}
	.st12{fill:#380371;stroke:#F95407;stroke-miterlimit:10;}
	.st13{fill:#390372;stroke:#F95407;stroke-miterlimit:10;}
	.st14{fill:#3A0372;stroke:#F95407;stroke-miterlimit:10;}
	.st15{fill:#3B0372;stroke:#F95407;stroke-miterlimit:10;}
	.st16{fill:#3C0373;stroke:#F95407;stroke-miterlimit:10;}
	.st17{fill:#3D0373;stroke:#F95407;stroke-miterlimit:10;}
	.st18{fill:#3E0373;stroke:#F95407;stroke-miterlimit:10;}
	.st19{fill:#3F0373;stroke:#F95407;stroke-miterlimit:10;}
	.st20{fill:#400374;stroke:#F95407;stroke-miterlimit:10;}
	.st21{fill:#410374;stroke:#F95407;stroke-miterlimit:10;}
	.st22{fill:#420374;stroke:#F95407;stroke-miterlimit:10;}
	.st23{fill:#430374;stroke:#F95407;stroke-miterlimit:10;}
	.st24{fill:#440375;stroke:#F95407;stroke-miterlimit:10;}
	.st25{fill:#450375;stroke:#F95407;stroke-miterlimit:10;}
	.st26{fill:#460375;stroke:#F95407;stroke-miterlimit:10;}
	.st27{fill:#470376;stroke:#F95407;stroke-miterlimit:10;}
	.st28{fill:#480376;stroke:#F95407;stroke-miterlimit:10;}
	.st29{fill:#490376;stroke:#F95407;stroke-miterlimit:10;}
	.st30{fill:#4A0376;stroke:#F95407;stroke-miterlimit:10;}
	.st31{fill:#4B0377;stroke:#F95407;stroke-miterlimit:10;}
	.st32{fill:#4C0377;stroke:#F95407;stroke-miterlimit:10;}
	.st33{fill:#4C0277;stroke:#F95407;stroke-miterlimit:10;}
	.st34{fill:#4D0278;stroke:#F95407;stroke-miterlimit:10;}
	.st35{fill:#4E0278;stroke:#F95407;stroke-miterlimit:10;}
	.st36{fill:#4F0278;stroke:#F95407;stroke-miterlimit:10;}
	.st37{fill:#500278;stroke:#F95407;stroke-miterlimit:10;}
	.st38{fill:#510279;stroke:#F95407;stroke-miterlimit:10;}
	.st39{fill:#520279;stroke:#F95407;stroke-miterlimit:10;}
	.st40{fill:#530279;stroke:#F95407;stroke-miterlimit:10;}
	.st41{fill:#54027A;stroke:#F95407;stroke-miterlimit:10;}
	.st42{fill:#55027A;stroke:#F95407;stroke-miterlimit:10;}
	.st43{fill:#56027A;stroke:#F95407;stroke-miterlimit:10;}
	.st44{fill:#57027A;stroke:#F95407;stroke-miterlimit:10;}
	.st45{fill:#58027B;stroke:#F95407;stroke-miterlimit:10;}
	.st46{fill:#59027B;stroke:#F95407;stroke-miterlimit:10;}
	.st47{fill:#5A027B;stroke:#F95407;stroke-miterlimit:10;}
	.st48{fill:#5B027C;stroke:#F95407;stroke-miterlimit:10;}
	.st49{fill:#5C027C;stroke:#F95407;stroke-miterlimit:10;}
	.st50{fill:#5D027C;stroke:#F95407;stroke-miterlimit:10;}
	.st51{fill:#5E027C;stroke:#F95407;stroke-miterlimit:10;}
	.st52{fill:#5F027D;stroke:#F95407;stroke-miterlimit:10;}
	.st53{fill:#60027D;stroke:#F95407;stroke-miterlimit:10;}
	.st54{fill:#61017D;stroke:#F95407;stroke-miterlimit:10;}
	.st55{fill:#62017D;stroke:#F95407;stroke-miterlimit:10;}
	.st56{fill:#63017E;stroke:#F95407;stroke-miterlimit:10;}
	.st57{fill:#64017E;stroke:#F95407;stroke-miterlimit:10;}
	.st58{fill:#65017E;stroke:#F95407;stroke-miterlimit:10;}
	.st59{fill:#66017F;stroke:#F95407;stroke-miterlimit:10;}
	.st60{fill:#67017F;stroke:#F95407;stroke-miterlimit:10;}
	.st61{fill:#68017F;stroke:#F95407;stroke-miterlimit:10;}
	.st62{fill:#69017F;stroke:#F95407;stroke-miterlimit:10;}
	.st63{fill:#6A0180;stroke:#F95407;stroke-miterlimit:10;}
	.st64{fill:#6B0180;stroke:#F95407;stroke-miterlimit:10;}
	.st65{fill:#6B0180;stroke:#F85308;stroke-miterlimit:10;}
	.st66{fill:#6B0180;stroke:#F75309;stroke-miterlimit:10;}
	.st67{fill:#6B0180;stroke:#F6520A;stroke-miterlimit:10;}
	.st68{fill:#6B0180;stroke:#F5520A;stroke-miterlimit:10;}
	.st69{fill:#6B0180;stroke:#F4510B;stroke-miterlimit:10;}
	.st70{fill:#6B0180;stroke:#F3500C;stroke-miterlimit:10;}
	.st71{fill:#6B0180;stroke:#F2500D;stroke-miterlimit:10;}
	.st72{fill:#6B0180;stroke:#F14F0E;stroke-miterlimit:10;}
	.st73{fill:#6B0180;stroke:#F04F0F;stroke-miterlimit:10;}
	.st74{fill:#6B0180;stroke:#EF4E10;stroke-miterlimit:10;}
	.st75{fill:#6B0180;stroke:#EE4E10;stroke-miterlimit:10;}
	.st76{fill:#6B0180;stroke:#ED4D11;stroke-miterlimit:10;}
	.st77{fill:#6B0180;stroke:#EC4C12;stroke-miterlimit:10;}
	.st78{fill:#6B0180;stroke:#EB4C13;stroke-miterlimit:10;}
	.st79{fill:#6B0180;stroke:#EA4B14;stroke-miterlimit:10;}
	.st80{fill:#6B0180;stroke:#E94B15;stroke-miterlimit:10;}
	.st81{fill:#6B0180;stroke:#E84A15;stroke-miterlimit:10;}
	.st82{fill:#6B0180;stroke:#E74916;stroke-miterlimit:10;}
	.st83{fill:#6B0180;stroke:#E64917;stroke-miterlimit:10;}
	.st84{fill:#6B0180;stroke:#E54818;stroke-miterlimit:10;}
	.st85{fill:#6B0180;stroke:#E44819;stroke-miterlimit:10;}
	.st86{fill:#6B0180;stroke:#E3471A;stroke-miterlimit:10;}
	.st87{fill:#6B0180;stroke:#E2471B;stroke-miterlimit:10;}
	.st88{fill:#6B0180;stroke:#E1461B;stroke-miterlimit:10;}
	.st89{fill:#6B0180;stroke:#E0451C;stroke-miterlimit:10;}
	.st90{fill:#6B0180;stroke:#DF451D;stroke-miterlimit:10;}
	.st91{fill:#6B0180;stroke:#DE441E;stroke-miterlimit:10;}
	.st92{fill:#6B0180;stroke:#DD441F;stroke-miterlimit:10;}
	.st93{fill:#6B0180;stroke:#DC4320;stroke-miterlimit:10;}
	.st94{fill:#6B0180;stroke:#DB4221;stroke-miterlimit:10;}
	.st95{fill:#6B0180;stroke:#DA4221;stroke-miterlimit:10;}
	.st96{fill:#6B0180;stroke:#D94122;stroke-miterlimit:10;}
	.st97{fill:#6B0180;stroke:#D84123;stroke-miterlimit:10;}
	.st98{fill:#6B0180;stroke:#D74024;stroke-miterlimit:10;}
	.st99{fill:#6B0180;stroke:#D64025;stroke-miterlimit:10;}
	.st100{fill:#6B0180;stroke:#D53F26;stroke-miterlimit:10;}
	.st101{fill:#6B0180;stroke:#D43E27;stroke-miterlimit:10;}
	.st102{fill:#6B0180;stroke:#D33E27;stroke-miterlimit:10;}
	.st103{fill:#6B0180;stroke:#D23D28;stroke-miterlimit:10;}
	.st104{fill:#6B0180;stroke:#D13D29;stroke-miterlimit:10;}
	.st105{fill:#6B0180;stroke:#D03C2A;stroke-miterlimit:10;}
	.st106{fill:#6B0180;stroke:#CF3B2B;stroke-miterlimit:10;}
	.st107{fill:#6B0180;stroke:#CE3B2C;stroke-miterlimit:10;}
	.st108{fill:#6B0180;stroke:#CD3A2C;stroke-miterlimit:10;}
	.st109{fill:#6B0180;stroke:#CC3A2D;stroke-miterlimit:10;}
	.st110{fill:#6B0180;stroke:#CB392E;stroke-miterlimit:10;}
	.st111{fill:#6B0180;stroke:#CA392F;stroke-miterlimit:10;}
	.st112{fill:#6B0180;stroke:#C93830;stroke-miterlimit:10;}
	.st113{fill:#6B0180;stroke:#C83731;stroke-miterlimit:10;}
	.st114{fill:#6B0180;stroke:#C73732;stroke-miterlimit:10;}
	.st115{fill:#6B0180;stroke:#C63632;stroke-miterlimit:10;}
	.st116{fill:#6B0180;stroke:#C53633;stroke-miterlimit:10;}
	.st117{fill:#6B0180;stroke:#C43534;stroke-miterlimit:10;}
	.st118{fill:#6B0180;stroke:#C33435;stroke-miterlimit:10;}
	.st119{fill:#6B0180;stroke:#C23436;stroke-miterlimit:10;}
	.st120{fill:#6B0180;stroke:#C13337;stroke-miterlimit:10;}
	.st121{fill:#6B0180;stroke:#C03338;stroke-miterlimit:10;}
	.st122{fill:#6B0180;stroke:#BF3238;stroke-miterlimit:10;}
	.st123{fill:#6B0180;stroke:#BE3239;stroke-miterlimit:10;}
	.st124{fill:#6B0180;stroke:#BD313A;stroke-miterlimit:10;}
	.st125{fill:#6B0180;stroke:#BC303B;stroke-miterlimit:10;}
	.st126{fill:#6B0180;stroke:#BB303C;stroke-miterlimit:10;}
	.st127{fill:#6B0180;stroke:#BA2F3D;stroke-miterlimit:10;}
	.st128{fill:#6B0180;stroke:#B92F3E;stroke-miterlimit:10;}
	.st129{fill:#6B0180;stroke:#B82E3E;stroke-miterlimit:10;}
	.st130{fill:#6B0180;stroke:#B72D3F;stroke-miterlimit:10;}
	.st131{fill:#6B0180;stroke:#B62D40;stroke-miterlimit:10;}
	.st132{fill:#6B0180;stroke:#B52C41;stroke-miterlimit:10;}
	.st133{fill:#6B0180;stroke:#B42C42;stroke-miterlimit:10;}
	.st134{fill:#6B0180;stroke:#B32B43;stroke-miterlimit:10;}
	.st135{fill:#6B0180;stroke:#B22B43;stroke-miterlimit:10;}
	.st136{fill:#6B0180;stroke:#B12A44;stroke-miterlimit:10;}
	.st137{fill:#6B0180;stroke:#B02945;stroke-miterlimit:10;}
	.st138{fill:#6B0180;stroke:#AF2946;stroke-miterlimit:10;}
	.st139{fill:#6B0180;stroke:#AE2847;stroke-miterlimit:10;}
	.st140{fill:#6B0180;stroke:#AD2848;stroke-miterlimit:10;}
	.st141{fill:#6B0180;stroke:#AC2749;stroke-miterlimit:10;}
	.st142{fill:#6B0180;stroke:#AB2649;stroke-miterlimit:10;}
	.st143{fill:#6B0180;stroke:#AA264A;stroke-miterlimit:10;}
	.st144{fill:#6B0180;stroke:#A9254B;stroke-miterlimit:10;}
	.st145{fill:#6B0180;stroke:#A8254C;stroke-miterlimit:10;}
	.st146{fill:#6B0180;stroke:#A7244D;stroke-miterlimit:10;}
	.st147{fill:#6B0180;stroke:#A6234E;stroke-miterlimit:10;}
	.st148{fill:#6B0180;stroke:#A5234F;stroke-miterlimit:10;}
	.st149{fill:#6B0180;stroke:#A4224F;stroke-miterlimit:10;}
	.st150{fill:#6B0180;stroke:#A32250;stroke-miterlimit:10;}
	.st151{fill:#6B0180;stroke:#A22151;stroke-miterlimit:10;}
	.st152{fill:#6B0180;stroke:#A12152;stroke-miterlimit:10;}
	.st153{fill:#6B0180;stroke:#A02053;stroke-miterlimit:10;}
	.st154{fill:#6B0180;stroke:#9F1F54;stroke-miterlimit:10;}
	.st155{fill:#6B0180;stroke:#9E1F55;stroke-miterlimit:10;}
	.st156{fill:#6B0180;stroke:#9D1E55;stroke-miterlimit:10;}
	.st157{fill:#6B0180;stroke:#9C1E56;stroke-miterlimit:10;}
	.st158{fill:#6B0180;stroke:#9B1D57;stroke-miterlimit:10;}
	.st159{fill:#6B0180;stroke:#9A1C58;stroke-miterlimit:10;}
	.st160{fill:#6B0180;stroke:#991C59;stroke-miterlimit:10;}
	.st161{fill:#6B0180;stroke:#981B5A;stroke-miterlimit:10;}
	.st162{fill:#6B0180;stroke:#971B5B;stroke-miterlimit:10;}
	.st163{fill:#6B0180;stroke:#961A5B;stroke-miterlimit:10;}
	.st164{fill:#6B0180;stroke:#951A5C;stroke-miterlimit:10;}
	.st165{fill:#6B0180;stroke:#94195D;stroke-miterlimit:10;}
	.st166{fill:#6B0180;stroke:#93185E;stroke-miterlimit:10;}
	.st167{fill:#6B0180;stroke:#92185F;stroke-miterlimit:10;}
	.st168{fill:#6B0180;stroke:#911760;stroke-miterlimit:10;}
	.st169{fill:#6B0180;stroke:#901760;stroke-miterlimit:10;}
	.st170{fill:#6B0180;stroke:#8F1661;stroke-miterlimit:10;}
	.st171{fill:#6B0180;stroke:#8E1562;stroke-miterlimit:10;}
	.st172{fill:#6B0180;stroke:#8D1563;stroke-miterlimit:10;}
	.st173{fill:#6B0180;stroke:#8C1464;stroke-miterlimit:10;}
	.st174{fill:#6B0180;stroke:#8B1465;stroke-miterlimit:10;}
	.st175{fill:#6B0180;stroke:#8A1366;stroke-miterlimit:10;}
	.st176{fill:#6B0180;stroke:#891366;stroke-miterlimit:10;}
	.st177{fill:#6B0180;stroke:#881267;stroke-miterlimit:10;}
	.st178{fill:#6B0180;stroke:#871168;stroke-miterlimit:10;}
	.st179{fill:#6B0180;stroke:#861169;stroke-miterlimit:10;}
	.st180{fill:#6B0180;stroke:#85106A;stroke-miterlimit:10;}
	.st181{fill:#6B0180;stroke:#84106B;stroke-miterlimit:10;}
	.st182{fill:#6B0180;stroke:#830F6C;stroke-miterlimit:10;}
	.st183{fill:#6B0180;stroke:#820E6C;stroke-miterlimit:10;}
	.st184{fill:#6B0180;stroke:#810E6D;stroke-miterlimit:10;}
	.st185{fill:#6B0180;stroke:#800D6E;stroke-miterlimit:10;}
	.st186{fill:#6B0180;stroke:#7F0D6F;stroke-miterlimit:10;}
	.st187{fill:#6B0180;stroke:#7E0C70;stroke-miterlimit:10;}
	.st188{fill:#6B0180;stroke:#7D0C71;stroke-miterlimit:10;}
	.st189{fill:#6B0180;stroke:#7C0B72;stroke-miterlimit:10;}
	.st190{fill:#6B0180;stroke:#7B0A72;stroke-miterlimit:10;}
	.st191{fill:#6B0180;stroke:#7A0A73;stroke-miterlimit:10;}
	.st192{fill:#6B0180;stroke:#790974;stroke-miterlimit:10;}
	.st193{fill:#6B0180;stroke:#780975;stroke-miterlimit:10;}
	.st194{fill:#6B0180;stroke:#770876;stroke-miterlimit:10;}
	.st195{fill:#6B0180;stroke:#760777;stroke-miterlimit:10;}
	.st196{fill:#6B0180;stroke:#750777;stroke-miterlimit:10;}
	.st197{fill:#6B0180;stroke:#740678;stroke-miterlimit:10;}
	.st198{fill:#6B0180;stroke:#730679;stroke-miterlimit:10;}
	.st199{fill:#6B0180;stroke:#72057A;stroke-miterlimit:10;}
	.st200{fill:#6B0180;stroke:#71057B;stroke-miterlimit:10;}
	.st201{fill:#6B0180;stroke:#70047C;stroke-miterlimit:10;}
	.st202{fill:#6B0180;stroke:#6F037D;stroke-miterlimit:10;}
	.st203{fill:#6B0180;stroke:#6E037D;stroke-miterlimit:10;}
	.st204{fill:#6B0180;stroke:#6D027E;stroke-miterlimit:10;}
	.st205{fill:#6B0180;stroke:#6C027F;stroke-miterlimit:10;}
	.st206{fill:#6B0180;stroke:#6B0180;stroke-miterlimit:10;}
	.st207{fill:#6C0180;stroke:#6C027F;stroke-miterlimit:10;}
	.st208{fill:#6C0180;stroke:#6D027E;stroke-miterlimit:10;}
	.st209{fill:#6D0181;stroke:#6E037D;stroke-miterlimit:10;}
	.st210{fill:#6D0181;stroke:#6F037D;stroke-miterlimit:10;}
	.st211{fill:#6E0181;stroke:#70047C;stroke-miterlimit:10;}
	.st212{fill:#6E0181;stroke:#71057B;stroke-miterlimit:10;}
	.st213{fill:#6F0181;stroke:#72057A;stroke-miterlimit:10;}
	.st214{fill:#700182;stroke:#730679;stroke-miterlimit:10;}
	.st215{fill:#700182;stroke:#740678;stroke-miterlimit:10;}
	.st216{fill:#710182;stroke:#750777;stroke-miterlimit:10;}
	.st217{fill:#710182;stroke:#760777;stroke-miterlimit:10;}
	.st218{fill:#720182;stroke:#770876;stroke-miterlimit:10;}
	.st219{fill:#720183;stroke:#780975;stroke-miterlimit:10;}
	.st220{fill:#730183;stroke:#790974;stroke-miterlimit:10;}
	.st221{fill:#740183;stroke:#7A0A73;stroke-miterlimit:10;}
	.st222{fill:#740183;stroke:#7B0A72;stroke-miterlimit:10;}
	.st223{fill:#750183;stroke:#7C0B72;stroke-miterlimit:10;}
	.st224{fill:#750184;stroke:#7D0C71;stroke-miterlimit:10;}
	.st225{fill:#760184;stroke:#7E0C70;stroke-miterlimit:10;}
	.st226{fill:#760184;stroke:#7F0D6F;stroke-miterlimit:10;}
	.st227{fill:#770184;stroke:#800D6E;stroke-miterlimit:10;}
	.st228{fill:#780184;stroke:#810E6D;stroke-miterlimit:10;}
	.st229{fill:#780185;stroke:#820E6C;stroke-miterlimit:10;}
	.st230{fill:#790185;stroke:#830F6C;stroke-miterlimit:10;}
	.st231{fill:#790185;stroke:#84106B;stroke-miterlimit:10;}
	.st232{fill:#7A0185;stroke:#85106A;stroke-miterlimit:10;}
	.st233{fill:#7A0185;stroke:#861169;stroke-miterlimit:10;}
	.st234{fill:#7B0186;stroke:#871168;stroke-miterlimit:10;}
	.st235{fill:#7C0186;stroke:#881267;stroke-miterlimit:10;}
	.st236{fill:#7C0186;stroke:#891366;stroke-miterlimit:10;}
	.st237{fill:#7D0186;stroke:#8A1366;stroke-miterlimit:10;}
	.st238{fill:#7D0186;stroke:#8B1465;stroke-miterlimit:10;}
	.st239{fill:#7E0187;stroke:#8C1464;stroke-miterlimit:10;}
	.st240{fill:#7E0187;stroke:#8D1563;stroke-miterlimit:10;}
	.st241{fill:#7F0187;stroke:#8E1562;stroke-miterlimit:10;}
	.st242{fill:#800187;stroke:#8F1661;stroke-miterlimit:10;}
	.st243{fill:#800187;stroke:#901760;stroke-miterlimit:10;}
	.st244{fill:#810187;stroke:#911760;stroke-miterlimit:10;}
	.st245{fill:#810188;stroke:#92185F;stroke-miterlimit:10;}
	.st246{fill:#820188;stroke:#93185E;stroke-miterlimit:10;}
	.st247{fill:#820188;stroke:#94195D;stroke-miterlimit:10;}
	.st248{fill:#830188;stroke:#951A5C;stroke-miterlimit:10;}
	.st249{fill:#840188;stroke:#961A5B;stroke-miterlimit:10;}
	.st250{fill:#840189;stroke:#971B5B;stroke-miterlimit:10;}
	.st251{fill:#850189;stroke:#981B5A;stroke-miterlimit:10;}
	.st252{fill:#850189;stroke:#991C59;stroke-miterlimit:10;}
	.st253{fill:#860189;stroke:#9A1C58;stroke-miterlimit:10;}
	.st254{fill:#860189;stroke:#9B1D57;stroke-miterlimit:10;}
	.st255{fill:#87018A;stroke:#9C1E56;stroke-miterlimit:10;}
	.st256{fill:#88018A;stroke:#9D1E55;stroke-miterlimit:10;}
	.st257{fill:#88018A;stroke:#9E1F55;stroke-miterlimit:10;}
	.st258{fill:#89018A;stroke:#9F1F54;stroke-miterlimit:10;}
	.st259{fill:#89018A;stroke:#A02053;stroke-miterlimit:10;}
	.st260{fill:#8A018B;stroke:#A12152;stroke-miterlimit:10;}
	.st261{fill:#8A018B;stroke:#A22151;stroke-miterlimit:10;}
	.st262{fill:#8B018B;stroke:#A32250;stroke-miterlimit:10;}
	.st263{fill:#8C018B;stroke:#A4224F;stroke-miterlimit:10;}
	.st264{fill:#8C018B;stroke:#A5234F;stroke-miterlimit:10;}
	.st265{fill:#8D018C;stroke:#A6234E;stroke-miterlimit:10;}
	.st266{fill:#8D018C;stroke:#A7244D;stroke-miterlimit:10;}
	.st267{fill:#8E018C;stroke:#A8254C;stroke-miterlimit:10;}
	.st268{fill:#8E018C;stroke:#A9254B;stroke-miterlimit:10;}
	.st269{fill:#8F018C;stroke:#AA264A;stroke-miterlimit:10;}
	.st270{fill:#90018D;stroke:#AB2649;stroke-miterlimit:10;}
	.st271{fill:#90018D;stroke:#AC2749;stroke-miterlimit:10;}
	.st272{fill:#91018D;stroke:#AD2848;stroke-miterlimit:10;}
	.st273{fill:#91018D;stroke:#AE2847;stroke-miterlimit:10;}
	.st274{fill:#92018D;stroke:#AF2946;stroke-miterlimit:10;}
	.st275{fill:#92018E;stroke:#B02945;stroke-miterlimit:10;}
	.st276{fill:#93018E;stroke:#B12A44;stroke-miterlimit:10;}
	.st277{fill:#93018E;stroke:#B22A44;stroke-miterlimit:10;}
	.st278{fill:#94018E;stroke:#B32B43;stroke-miterlimit:10;}
	.st279{fill:#95018E;stroke:#B42C42;stroke-miterlimit:10;}
	.st280{fill:#95018F;stroke:#B52C41;stroke-miterlimit:10;}
	.st281{fill:#96018F;stroke:#B62D40;stroke-miterlimit:10;}
	.st282{fill:#96018F;stroke:#B72D3F;stroke-miterlimit:10;}
	.st283{fill:#97018F;stroke:#B82E3E;stroke-miterlimit:10;}
	.st284{fill:#97018F;stroke:#B92F3E;stroke-miterlimit:10;}
	.st285{fill:#980190;stroke:#BA2F3D;stroke-miterlimit:10;}
	.st286{fill:#990190;stroke:#BB303C;stroke-miterlimit:10;}
	.st287{fill:#990190;stroke:#BC303B;stroke-miterlimit:10;}
	.st288{fill:#9A0190;stroke:#BD313A;stroke-miterlimit:10;}
	.st289{fill:#9A0190;stroke:#BE3239;stroke-miterlimit:10;}
	.st290{fill:#9B0191;stroke:#BF3238;stroke-miterlimit:10;}
	.st291{fill:#9B0191;stroke:#C03338;stroke-miterlimit:10;}
	.st292{fill:#9C0191;stroke:#C13337;stroke-miterlimit:10;}
	.st293{fill:#9D0191;stroke:#C23436;stroke-miterlimit:10;}
	.st294{fill:#9D0191;stroke:#C33435;stroke-miterlimit:10;}
	.st295{fill:#9E0192;stroke:#C43534;stroke-miterlimit:10;}
	.st296{fill:#9E0192;stroke:#C53633;stroke-miterlimit:10;}
	.st297{fill:#9F0192;stroke:#C63632;stroke-miterlimit:10;}
	.st298{fill:#9F0192;stroke:#C73732;stroke-miterlimit:10;}
	.st299{fill:#A00192;stroke:#C83731;stroke-miterlimit:10;}
	.st300{fill:#A10193;stroke:#C93830;stroke-miterlimit:10;}
	.st301{fill:#A10193;stroke:#CA392F;stroke-miterlimit:10;}
	.st302{fill:#A20193;stroke:#CB392E;stroke-miterlimit:10;}
	.st303{fill:#A20193;stroke:#CC3A2D;stroke-miterlimit:10;}
	.st304{fill:#A30193;stroke:#CD3A2C;stroke-miterlimit:10;}
	.st305{fill:#A30194;stroke:#CE3B2C;stroke-miterlimit:10;}
	.st306{fill:#A40194;stroke:#CF3B2B;stroke-miterlimit:10;}
	.st307{fill:#A50194;stroke:#D03C2A;stroke-miterlimit:10;}
	.st308{fill:#A50194;stroke:#D13D29;stroke-miterlimit:10;}
	.st309{fill:#A60194;stroke:#D23D28;stroke-miterlimit:10;}
	.st310{fill:#A60195;stroke:#D33E27;stroke-miterlimit:10;}
	.st311{fill:#A70195;stroke:#D43E27;stroke-miterlimit:10;}
	.st312{fill:#A70195;stroke:#D53F26;stroke-miterlimit:10;}
	.st313{fill:#A80195;stroke:#D64025;stroke-miterlimit:10;}
	.st314{fill:#A90195;stroke:#D74024;stroke-miterlimit:10;}
	.st315{fill:#A90195;stroke:#D84123;stroke-miterlimit:10;}
	.st316{fill:#AA0196;stroke:#D94122;stroke-miterlimit:10;}
	.st317{fill:#AA0196;stroke:#DA4221;stroke-miterlimit:10;}
	.st318{fill:#AB0196;stroke:#DB4221;stroke-miterlimit:10;}
	.st319{fill:#AB0196;stroke:#DC4320;stroke-miterlimit:10;}
	.st320{fill:#AC0196;stroke:#DD441F;stroke-miterlimit:10;}
	.st321{fill:#AD0197;stroke:#DE441E;stroke-miterlimit:10;}
	.st322{fill:#AD0197;stroke:#DF451D;stroke-miterlimit:10;}
	.st323{fill:#AE0197;stroke:#E0451C;stroke-miterlimit:10;}
	.st324{fill:#AE0197;stroke:#E1461B;stroke-miterlimit:10;}
	.st325{fill:#AF0197;stroke:#E2471B;stroke-miterlimit:10;}
	.st326{fill:#AF0198;stroke:#E3471A;stroke-miterlimit:10;}
	.st327{fill:#B00198;stroke:#E44819;stroke-miterlimit:10;}
	.st328{fill:#B10198;stroke:#E54818;stroke-miterlimit:10;}
	.st329{fill:#B10198;stroke:#E64917;stroke-miterlimit:10;}
	.st330{fill:#B20198;stroke:#E74916;stroke-miterlimit:10;}
	.st331{fill:#B20199;stroke:#E84A15;stroke-miterlimit:10;}
	.st332{fill:#B30199;stroke:#E94B15;stroke-miterlimit:10;}
	.st333{fill:#B30199;stroke:#EA4B14;stroke-miterlimit:10;}
	.st334{fill:#B40199;stroke:#EB4C13;stroke-miterlimit:10;}
	.st335{fill:#B50199;stroke:#EC4C12;stroke-miterlimit:10;}
	.st336{fill:#B5019A;stroke:#ED4D11;stroke-miterlimit:10;}
	.st337{fill:#B6019A;stroke:#EE4E10;stroke-miterlimit:10;}
	.st338{fill:#B6019A;stroke:#EF4E10;stroke-miterlimit:10;}
	.st339{fill:#B7019A;stroke:#F04F0F;stroke-miterlimit:10;}
	.st340{fill:#B7019A;stroke:#F14F0E;stroke-miterlimit:10;}
	.st341{fill:#B8019B;stroke:#F2500D;stroke-miterlimit:10;}
	.st342{fill:#B9019B;stroke:#F3500C;stroke-miterlimit:10;}
	.st343{fill:#B9019B;stroke:#F4510B;stroke-miterlimit:10;}
	.st344{fill:#BA019B;stroke:#F5520A;stroke-miterlimit:10;}
	.st345{fill:#BA019B;stroke:#F6520A;stroke-miterlimit:10;}
	.st346{fill:#BB019C;stroke:#F75309;stroke-miterlimit:10;}
	.st347{fill:#BB019C;stroke:#F85308;stroke-miterlimit:10;}
	.st348{fill:#BC019C;stroke:#F95407;stroke-miterlimit:10;}
	.st349{fill:#BB019C;stroke:#F95407;stroke-miterlimit:10;}
	.st350{fill:#BA019B;stroke:#F95407;stroke-miterlimit:10;}
	.st351{fill:#B9019B;stroke:#F95407;stroke-miterlimit:10;}
	.st352{fill:#B8019B;stroke:#F95407;stroke-miterlimit:10;}
	.st353{fill:#B7019A;stroke:#F95407;stroke-miterlimit:10;}
	.st354{fill:#B6019A;stroke:#F95407;stroke-miterlimit:10;}
	.st355{fill:#B5019A;stroke:#F95407;stroke-miterlimit:10;}
	.st356{fill:#B40199;stroke:#F95407;stroke-miterlimit:10;}
	.st357{fill:#B30199;stroke:#F95407;stroke-miterlimit:10;}
	.st358{fill:#B20199;stroke:#F95407;stroke-miterlimit:10;}
	.st359{fill:#B10198;stroke:#F95407;stroke-miterlimit:10;}
	.st360{fill:#B00198;stroke:#F95407;stroke-miterlimit:10;}
	.st361{fill:#AF0198;stroke:#F95407;stroke-miterlimit:10;}
	.st362{fill:#AE0198;stroke:#F95407;stroke-miterlimit:10;}
	.st363{fill:#AD0197;stroke:#F95407;stroke-miterlimit:10;}
	.st364{fill:#AC0197;stroke:#F95407;stroke-miterlimit:10;}
	.st365{fill:#AB0197;stroke:#F95407;stroke-miterlimit:10;}
	.st366{fill:#AA0196;stroke:#F95407;stroke-miterlimit:10;}
	.st367{fill:#A90196;stroke:#F95407;stroke-miterlimit:10;}
	.st368{fill:#A80196;stroke:#F95407;stroke-miterlimit:10;}
	.st369{fill:#A70195;stroke:#F95407;stroke-miterlimit:10;}
	.st370{fill:#A60195;stroke:#F95407;stroke-miterlimit:10;}
	.st371{fill:#A50195;stroke:#F95407;stroke-miterlimit:10;}
	.st372{fill:#A40294;stroke:#F95407;stroke-miterlimit:10;}
	.st373{fill:#A30294;stroke:#F95407;stroke-miterlimit:10;}
	.st374{fill:#A20294;stroke:#F95407;stroke-miterlimit:10;}
	.st375{fill:#A10293;stroke:#F95407;stroke-miterlimit:10;}
	.st376{fill:#A00293;stroke:#F95407;stroke-miterlimit:10;}
	.st377{fill:#9F0293;stroke:#F95407;stroke-miterlimit:10;}
	.st378{fill:#9E0292;stroke:#F95407;stroke-miterlimit:10;}
	.st379{fill:#9D0292;stroke:#F95407;stroke-miterlimit:10;}
	.st380{fill:#9C0292;stroke:#F95407;stroke-miterlimit:10;}
	.st381{fill:#9B0291;stroke:#F95407;stroke-miterlimit:10;}
	.st382{fill:#9A0291;stroke:#F95407;stroke-miterlimit:10;}
	.st383{fill:#990291;stroke:#F95407;stroke-miterlimit:10;}
	.st384{fill:#980290;stroke:#F95407;stroke-miterlimit:10;}
	.st385{fill:#970290;stroke:#F95407;stroke-miterlimit:10;}
	.st386{fill:#960290;stroke:#F95407;stroke-miterlimit:10;}
	.st387{fill:#950290;stroke:#F95407;stroke-miterlimit:10;}
	.st388{fill:#94028F;stroke:#F95407;stroke-miterlimit:10;}
	.st389{fill:#93028F;stroke:#F95407;stroke-miterlimit:10;}
	.st390{fill:#92028F;stroke:#F95407;stroke-miterlimit:10;}
	.st391{fill:#91028E;stroke:#F95407;stroke-miterlimit:10;}
	.st392{fill:#90028E;stroke:#F95407;stroke-miterlimit:10;}
	.st393{fill:#8F028E;stroke:#F95407;stroke-miterlimit:10;}
	.st394{fill:#8E028D;stroke:#F95407;stroke-miterlimit:10;}
	.st395{fill:#8D028D;stroke:#F95407;stroke-miterlimit:10;}
	.st396{fill:#8C028D;stroke:#F95407;stroke-miterlimit:10;}
	.st397{fill:#8B028C;stroke:#F95407;stroke-miterlimit:10;}
	.st398{fill:#8A028C;stroke:#F95407;stroke-miterlimit:10;}
	.st399{fill:#89028C;stroke:#F95407;stroke-miterlimit:10;}
	.st400{fill:#88028B;stroke:#F95407;stroke-miterlimit:10;}
	.st401{fill:#87028B;stroke:#F95407;stroke-miterlimit:10;}
	.st402{fill:#86028B;stroke:#F95407;stroke-miterlimit:10;}
	.st403{fill:#85028A;stroke:#F95407;stroke-miterlimit:10;}
	.st404{fill:#84028A;stroke:#F95407;stroke-miterlimit:10;}
	.st405{fill:#83028A;stroke:#F95407;stroke-miterlimit:10;}
	.st406{fill:#820289;stroke:#F95407;stroke-miterlimit:10;}
	.st407{fill:#810289;stroke:#F95407;stroke-miterlimit:10;}
	.st408{fill:#800289;stroke:#F95407;stroke-miterlimit:10;}
	.st409{fill:#7F0289;stroke:#F95407;stroke-miterlimit:10;}
	.st410{fill:#7E0288;stroke:#F95407;stroke-miterlimit:10;}
	.st411{fill:#7D0288;stroke:#F95407;stroke-miterlimit:10;}
	.st412{fill:#7C0288;stroke:#F95407;stroke-miterlimit:10;}
	.st413{fill:#7B0287;stroke:#F95407;stroke-miterlimit:10;}
	.st414{fill:#7A0287;stroke:#F95407;stroke-miterlimit:10;}
	.st415{fill:#790287;stroke:#F95407;stroke-miterlimit:10;}
	.st416{fill:#780286;stroke:#F95407;stroke-miterlimit:10;}
	.st417{fill:#770286;stroke:#F95407;stroke-miterlimit:10;}
	.st418{fill:#760286;stroke:#F95407;stroke-miterlimit:10;}
	.st419{fill:#750285;stroke:#F95407;stroke-miterlimit:10;}
	.st420{fill:#740385;stroke:#F95407;stroke-miterlimit:10;}
	.st421{fill:#730385;stroke:#F95407;stroke-miterlimit:10;}
	.st422{fill:#720384;stroke:#F95407;stroke-miterlimit:10;}
	.st423{fill:#710384;stroke:#F95407;stroke-miterlimit:10;}
	.st424{fill:#700384;stroke:#F95407;stroke-miterlimit:10;}
	.st425{fill:#6F0383;stroke:#F95407;stroke-miterlimit:10;}
	.st426{fill:#6E0383;stroke:#F95407;stroke-miterlimit:10;}
	.st427{fill:#6D0383;stroke:#F95407;stroke-miterlimit:10;}
	.st428{fill:#6C0382;stroke:#F95407;stroke-miterlimit:10;}
	.st429{fill:#6B0382;stroke:#F95407;stroke-miterlimit:10;}
	.st430{fill:#6A0382;stroke:#F95407;stroke-miterlimit:10;}
	.st431{fill:#690381;stroke:#F95407;stroke-miterlimit:10;}
	.st432{fill:#680381;stroke:#F95407;stroke-miterlimit:10;}
	.st433{fill:#670381;stroke:#F95407;stroke-miterlimit:10;}
	.st434{fill:#660381;stroke:#F95407;stroke-miterlimit:10;}
	.st435{fill:#650380;stroke:#F95407;stroke-miterlimit:10;}
	.st436{fill:#640380;stroke:#F95407;stroke-miterlimit:10;}
	.st437{fill:#630380;stroke:#F95407;stroke-miterlimit:10;}
	.st438{fill:#62037F;stroke:#F95407;stroke-miterlimit:10;}
	.st439{fill:#61037F;stroke:#F95407;stroke-miterlimit:10;}
	.st440{fill:#60037F;stroke:#F95407;stroke-miterlimit:10;}
	.st441{fill:#5F037E;stroke:#F95407;stroke-miterlimit:10;}
	.st442{fill:#5E037E;stroke:#F95407;stroke-miterlimit:10;}
	.st443{fill:#5D037E;stroke:#F95407;stroke-miterlimit:10;}
	.st444{fill:#5C037D;stroke:#F95407;stroke-miterlimit:10;}
	.st445{fill:#5B037D;stroke:#F95407;stroke-miterlimit:10;}
	.st446{fill:#5A037D;stroke:#F95407;stroke-miterlimit:10;}
	.st447{fill:#59037C;stroke:#F95407;stroke-miterlimit:10;}
	.st448{fill:#58037C;stroke:#F95407;stroke-miterlimit:10;}
	.st449{fill:#57037C;stroke:#F95407;stroke-miterlimit:10;}
	.st450{fill:#56037B;stroke:#F95407;stroke-miterlimit:10;}
	.st451{fill:#55037B;stroke:#F95407;stroke-miterlimit:10;}
	.st452{fill:#54037B;stroke:#F95407;stroke-miterlimit:10;}
	.st453{fill:#53037A;stroke:#F95407;stroke-miterlimit:10;}
	.st454{fill:#52037A;stroke:#F95407;stroke-miterlimit:10;}
	.st455{fill:#51037A;stroke:#F95407;stroke-miterlimit:10;}
	.st456{fill:#50037A;stroke:#F95407;stroke-miterlimit:10;}
	.st457{fill:#4F0379;stroke:#F95407;stroke-miterlimit:10;}
	.st458{fill:#4E0379;stroke:#F95407;stroke-miterlimit:10;}
	.st459{fill:#4D0379;stroke:#F95407;stroke-miterlimit:10;}
	.st460{fill:#4C0378;stroke:#F95407;stroke-miterlimit:10;}
	.st461{fill:#4B0378;stroke:#F95407;stroke-miterlimit:10;}
	.st462{fill:#4A0378;stroke:#F95407;stroke-miterlimit:10;}
	.st463{fill:#490377;stroke:#F95407;stroke-miterlimit:10;}
	.st464{fill:#480377;stroke:#F95407;stroke-miterlimit:10;}
	.st465{fill:#470377;stroke:#F95407;stroke-miterlimit:10;}
	.st466{fill:#460376;stroke:#F95407;stroke-miterlimit:10;}
	.st467{fill:#450376;stroke:#F95407;stroke-miterlimit:10;}
	.st468{fill:#440376;stroke:#F95407;stroke-miterlimit:10;}
	.st469{fill:#430475;stroke:#F95407;stroke-miterlimit:10;}
	.st470{fill:#420475;stroke:#F95407;stroke-miterlimit:10;}
	.st471{fill:#410475;stroke:#F95407;stroke-miterlimit:10;}
	.st472{fill:#400474;stroke:#F95407;stroke-miterlimit:10;}
	.st473{fill:#3F0474;stroke:#F95407;stroke-miterlimit:10;}
	.st474{fill:#3E0474;stroke:#F95407;stroke-miterlimit:10;}
	.st475{fill:#3D0473;stroke:#F95407;stroke-miterlimit:10;}
	.st476{fill:#3C0473;stroke:#F95407;stroke-miterlimit:10;}
	.st477{fill:#3B0473;stroke:#F95407;stroke-miterlimit:10;}
	.st478{fill:#3A0472;stroke:#F95407;stroke-miterlimit:10;}
	.st479{fill:#390472;stroke:#F95407;stroke-miterlimit:10;}
	.st480{fill:#380472;stroke:#F95407;stroke-miterlimit:10;}
	.st481{fill:#370472;stroke:#F95407;stroke-miterlimit:10;}
	.st482{fill:#340471;stroke:#F95407;stroke-miterlimit:10;}
	.st483{fill:#310470;stroke:#F95407;stroke-miterlimit:10;}
	.st484{fill:none;}
	.st485{fill:#FFFFFF;}
	.st486{font-family:'ArialRoundedMTBold';}
	.st487{font-size:27.3101px;}
	.st488{font-size:18.2067px;}
	.st489{fill:none;stroke:#F95407;stroke-miterlimit:10;}
</style>
<g>
	<g>
		<polygon class="st0" points="125.71,19.23 102.58,19.23 91.02,39.26 102.58,59.29 125.71,59.29 137.28,39.26 		"/>
		<polygon class="st1" points="125.17,19.54 102.03,19.54 90.47,39.58 102.03,59.61 125.17,59.61 136.74,39.58 		"/>
		<polygon class="st2" points="124.63,19.85 101.49,19.85 89.92,39.89 101.49,59.93 124.63,59.93 136.2,39.89 		"/>
		<polygon class="st3" points="124.09,20.17 100.94,20.17 89.37,40.21 100.94,60.25 124.09,60.25 135.66,40.21 		"/>
		<polygon class="st4" points="123.54,20.48 100.4,20.48 88.82,40.53 100.4,60.57 123.54,60.57 135.12,40.53 		"/>
		<polygon class="st5" points="123,20.79 99.85,20.79 88.27,40.84 99.85,60.89 123,60.89 134.58,40.84 		"/>
		<polygon class="st6" points="122.46,21.11 99.3,21.11 87.72,41.16 99.3,61.21 122.46,61.21 134.04,41.16 		"/>
		<polygon class="st7" points="121.92,21.42 98.76,21.42 87.18,41.48 98.76,61.53 121.92,61.53 133.5,41.48 		"/>
		<polygon class="st8" points="121.37,21.73 98.21,21.73 86.63,41.79 98.21,61.85 121.37,61.85 132.96,41.79 		"/>
		<polygon class="st9" points="120.83,22.04 97.66,22.04 86.08,42.11 97.66,62.17 120.83,62.17 132.42,42.11 		"/>
		<polygon class="st10" points="120.29,22.36 97.12,22.36 85.53,42.42 97.12,62.49 120.29,62.49 131.87,42.42 		"/>
		<polygon class="st11" points="119.75,22.67 96.57,22.67 84.98,42.74 96.57,62.81 119.75,62.81 131.33,42.74 		"/>
		<polygon class="st12" points="119.2,22.98 96.02,22.98 84.43,43.06 96.02,63.13 119.2,63.13 130.79,43.06 		"/>
		<polygon class="st13" points="118.66,23.3 95.48,23.3 83.89,43.37 95.48,63.45 118.66,63.45 130.25,43.37 		"/>
		<polygon class="st14" points="118.12,23.61 94.93,23.61 83.34,43.69 94.93,63.77 118.12,63.77 129.71,43.69 		"/>
		<polygon class="st15" points="117.58,23.92 94.38,23.92 82.79,44.01 94.38,64.09 117.58,64.09 129.17,44.01 		"/>
		<polygon class="st16" points="117.03,24.23 93.84,24.23 82.24,44.32 93.84,64.41 117.03,64.41 128.63,44.32 		"/>
		<polygon class="st17" points="116.49,24.55 93.29,24.55 81.69,44.64 93.29,64.73 116.49,64.73 128.09,44.64 		"/>
		<polygon class="st18" points="115.95,24.86 92.74,24.86 81.14,44.96 92.74,65.05 115.95,65.05 127.55,44.96 		"/>
		<polygon class="st19" points="115.41,25.17 92.2,25.17 80.59,45.27 92.2,65.37 115.41,65.37 127.01,45.27 		"/>
		<polygon class="st20" points="114.86,25.49 91.65,25.49 80.05,45.59 91.65,65.69 114.86,65.69 126.47,45.59 		"/>
		<polygon class="st21" points="114.32,25.8 91.11,25.8 79.5,45.9 91.11,66.01 114.32,66.01 125.93,45.9 		"/>
		<polygon class="st22" points="113.78,26.11 90.56,26.11 78.95,46.22 90.56,66.33 113.78,66.33 125.39,46.22 		"/>
		<polygon class="st23" points="113.24,26.42 90.01,26.42 78.4,46.54 90.01,66.65 113.24,66.65 124.85,46.54 		"/>
		<polygon class="st24" points="112.69,26.74 89.47,26.74 77.85,46.85 89.47,66.97 112.69,66.97 124.31,46.85 		"/>
		<polygon class="st25" points="112.15,27.05 88.92,27.05 77.3,47.17 88.92,67.29 112.15,67.29 123.77,47.17 		"/>
		<polygon class="st26" points="111.61,27.36 88.37,27.36 76.75,47.49 88.37,67.61 111.61,67.61 123.23,47.49 		"/>
		<polygon class="st27" points="111.07,27.68 87.83,27.68 76.21,47.8 87.83,67.93 111.07,67.93 122.69,47.8 		"/>
		<polygon class="st28" points="110.52,27.99 87.28,27.99 75.66,48.12 87.28,68.25 110.52,68.25 122.15,48.12 		"/>
		<polygon class="st29" points="109.98,28.3 86.73,28.3 75.11,48.44 86.73,68.57 109.98,68.57 121.61,48.44 		"/>
		<polygon class="st30" points="109.44,28.62 86.19,28.62 74.56,48.75 86.19,68.89 109.44,68.89 121.07,48.75 		"/>
		<polygon class="st31" points="108.9,28.93 85.64,28.93 74.01,49.07 85.64,69.21 108.9,69.21 120.52,49.07 		"/>
		<polygon class="st32" points="108.35,29.24 85.09,29.24 73.46,49.39 85.09,69.53 108.35,69.53 119.98,49.39 		"/>
		<polygon class="st33" points="107.81,29.55 84.55,29.55 72.92,49.7 84.55,69.85 107.81,69.85 119.44,49.7 		"/>
		<polygon class="st34" points="107.27,29.87 84,29.87 72.37,50.02 84,70.17 107.27,70.17 118.9,50.02 		"/>
		<polygon class="st35" points="106.73,30.18 83.45,30.18 71.82,50.33 83.45,70.49 106.73,70.49 118.36,50.33 		"/>
		<polygon class="st36" points="106.18,30.49 82.91,30.49 71.27,50.65 82.91,70.81 106.18,70.81 117.82,50.65 		"/>
		<polygon class="st37" points="105.64,30.81 82.36,30.81 70.72,50.97 82.36,71.13 105.64,71.13 117.28,50.97 		"/>
		<polygon class="st38" points="105.1,31.12 81.82,31.12 70.17,51.28 81.82,71.45 105.1,71.45 116.74,51.28 		"/>
		<polygon class="st39" points="104.56,31.43 81.27,31.43 69.62,51.6 81.27,71.77 104.56,71.77 116.2,51.6 		"/>
		<polygon class="st40" points="104.01,31.74 80.72,31.74 69.08,51.92 80.72,72.09 104.01,72.09 115.66,51.92 		"/>
		<polygon class="st41" points="103.47,32.06 80.18,32.06 68.53,52.23 80.18,72.41 103.47,72.41 115.12,52.23 		"/>
		<polygon class="st42" points="102.93,32.37 79.63,32.37 67.98,52.55 79.63,72.73 102.93,72.73 114.58,52.55 		"/>
		<polygon class="st43" points="102.39,32.68 79.08,32.68 67.43,52.87 79.08,73.05 102.39,73.05 114.04,52.87 		"/>
		<polygon class="st44" points="101.84,33 78.54,33 66.88,53.18 78.54,73.37 101.84,73.37 113.5,53.18 		"/>
		<polygon class="st45" points="101.3,33.31 77.99,33.31 66.33,53.5 77.99,73.69 101.3,73.69 112.96,53.5 		"/>
		<polygon class="st46" points="100.76,33.62 77.44,33.62 65.79,53.81 77.44,74.01 100.76,74.01 112.42,53.81 		"/>
		<polygon class="st47" points="100.22,33.94 76.9,33.94 65.24,54.13 76.9,74.33 100.22,74.33 111.88,54.13 		"/>
		<polygon class="st48" points="99.67,34.25 76.35,34.25 64.69,54.45 76.35,74.65 99.67,74.65 111.34,54.45 		"/>
		<polygon class="st49" points="99.13,34.56 75.8,34.56 64.14,54.76 75.8,74.97 99.13,74.97 110.8,54.76 		"/>
		<polygon class="st50" points="98.59,34.87 75.26,34.87 63.59,55.08 75.26,75.29 98.59,75.29 110.26,55.08 		"/>
		<polygon class="st51" points="98.05,35.19 74.71,35.19 63.04,55.4 74.71,75.61 98.05,75.61 109.72,55.4 		"/>
		<polygon class="st52" points="97.5,35.5 74.16,35.5 62.49,55.71 74.16,75.93 97.5,75.93 109.18,55.71 		"/>
		<polygon class="st53" points="96.96,35.81 73.62,35.81 61.95,56.03 73.62,76.25 96.96,76.25 108.63,56.03 		"/>
		<polygon class="st54" points="96.42,36.13 73.07,36.13 61.4,56.35 73.07,76.57 96.42,76.57 108.09,56.35 		"/>
		<polygon class="st55" points="95.88,36.44 72.53,36.44 60.85,56.66 72.53,76.89 95.88,76.89 107.55,56.66 		"/>
		<polygon class="st56" points="95.34,36.75 71.98,36.75 60.3,56.98 71.98,77.21 95.34,77.21 107.01,56.98 		"/>
		<polygon class="st57" points="94.79,37.06 71.43,37.06 59.75,57.3 71.43,77.53 94.79,77.53 106.47,57.3 		"/>
		<polygon class="st58" points="94.25,37.38 70.89,37.38 59.2,57.61 70.89,77.85 94.25,77.85 105.93,57.61 		"/>
		<polygon class="st59" points="93.71,37.69 70.34,37.69 58.66,57.93 70.34,78.17 93.71,78.17 105.39,57.93 		"/>
		<polygon class="st60" points="93.17,38 69.79,38 58.11,58.24 69.79,78.49 93.17,78.49 104.85,58.24 		"/>
		<polygon class="st61" points="92.62,38.32 69.25,38.32 57.56,58.56 69.25,78.81 92.62,78.81 104.31,58.56 		"/>
		<polygon class="st62" points="92.08,38.63 68.7,38.63 57.01,58.88 68.7,79.13 92.08,79.13 103.77,58.88 		"/>
		<polygon class="st63" points="91.54,38.94 68.15,38.94 56.46,59.19 68.15,79.45 91.54,79.45 103.23,59.19 		"/>
		<polygon class="st64" points="91,39.25 67.61,39.25 55.91,59.51 67.61,79.76 91,79.76 102.69,59.51 		"/>
		<polygon class="st65" points="91.48,39.25 68.1,39.25 56.4,59.51 68.1,79.76 91.48,79.76 103.18,59.51 		"/>
		<polygon class="st66" points="91.97,39.25 68.59,39.25 56.89,59.51 68.59,79.76 91.97,79.76 103.67,59.51 		"/>
		<polygon class="st67" points="92.46,39.25 69.07,39.25 57.38,59.51 69.07,79.76 92.46,79.76 104.16,59.51 		"/>
		<polygon class="st68" points="92.95,39.25 69.56,39.25 57.87,59.51 69.56,79.76 92.95,79.76 104.65,59.51 		"/>
		<polygon class="st69" points="93.44,39.25 70.05,39.25 58.36,59.51 70.05,79.76 93.44,79.76 105.14,59.51 		"/>
		<polygon class="st70" points="93.93,39.25 70.54,39.25 58.85,59.51 70.54,79.76 93.93,79.76 105.62,59.51 		"/>
		<polygon class="st71" points="94.42,39.25 71.03,39.25 59.34,59.51 71.03,79.76 94.42,79.76 106.11,59.51 		"/>
		<polygon class="st72" points="94.91,39.25 71.52,39.25 59.83,59.51 71.52,79.76 94.91,79.76 106.6,59.51 		"/>
		<polygon class="st73" points="95.4,39.25 72.01,39.25 60.32,59.51 72.01,79.76 95.4,79.76 107.09,59.51 		"/>
		<polygon class="st74" points="95.89,39.25 72.5,39.25 60.8,59.51 72.5,79.76 95.89,79.76 107.58,59.51 		"/>
		<polygon class="st75" points="96.38,39.25 72.99,39.25 61.29,59.51 72.99,79.76 96.38,79.76 108.07,59.51 		"/>
		<polygon class="st76" points="96.87,39.25 73.48,39.25 61.78,59.51 73.48,79.76 96.87,79.76 108.56,59.51 		"/>
		<polygon class="st77" points="97.35,39.25 73.97,39.25 62.27,59.51 73.97,79.76 97.35,79.76 109.05,59.51 		"/>
		<polygon class="st78" points="97.84,39.25 74.46,39.25 62.76,59.51 74.46,79.76 97.84,79.76 109.54,59.51 		"/>
		<polygon class="st79" points="98.33,39.25 74.94,39.25 63.25,59.51 74.94,79.76 98.33,79.76 110.03,59.51 		"/>
		<polygon class="st80" points="98.82,39.25 75.43,39.25 63.74,59.51 75.43,79.76 98.82,79.76 110.52,59.51 		"/>
		<polygon class="st81" points="99.31,39.25 75.92,39.25 64.23,59.51 75.92,79.76 99.31,79.76 111.01,59.51 		"/>
		<polygon class="st82" points="99.8,39.25 76.41,39.25 64.72,59.51 76.41,79.76 99.8,79.76 111.5,59.51 		"/>
		<polygon class="st83" points="100.29,39.25 76.9,39.25 65.21,59.51 76.9,79.76 100.29,79.76 111.98,59.51 		"/>
		<polygon class="st84" points="100.78,39.25 77.39,39.25 65.7,59.51 77.39,79.76 100.78,79.76 112.47,59.51 		"/>
		<polygon class="st85" points="101.27,39.25 77.88,39.25 66.19,59.51 77.88,79.76 101.27,79.76 112.96,59.51 		"/>
		<polygon class="st86" points="101.76,39.25 78.37,39.25 66.68,59.51 78.37,79.76 101.76,79.76 113.45,59.51 		"/>
		<polygon class="st87" points="102.25,39.25 78.86,39.25 67.16,59.51 78.86,79.76 102.25,79.76 113.94,59.51 		"/>
		<polygon class="st88" points="102.74,39.25 79.35,39.25 67.65,59.51 79.35,79.76 102.74,79.76 114.43,59.51 		"/>
		<polygon class="st89" points="103.23,39.25 79.84,39.25 68.14,59.51 79.84,79.76 103.23,79.76 114.92,59.51 		"/>
		<polygon class="st90" points="103.71,39.25 80.33,39.25 68.63,59.51 80.33,79.76 103.71,79.76 115.41,59.51 		"/>
		<polygon class="st91" points="104.2,39.25 80.82,39.25 69.12,59.51 80.82,79.76 104.2,79.76 115.9,59.51 		"/>
		<polygon class="st92" points="104.69,39.25 81.3,39.25 69.61,59.51 81.3,79.76 104.69,79.76 116.39,59.51 		"/>
		<polygon class="st93" points="105.18,39.25 81.79,39.25 70.1,59.51 81.79,79.76 105.18,79.76 116.88,59.51 		"/>
		<polygon class="st94" points="105.67,39.25 82.28,39.25 70.59,59.51 82.28,79.76 105.67,79.76 117.37,59.51 		"/>
		<polygon class="st95" points="106.16,39.25 82.77,39.25 71.08,59.51 82.77,79.76 106.16,79.76 117.85,59.51 		"/>
		<polygon class="st96" points="106.65,39.25 83.26,39.25 71.57,59.51 83.26,79.76 106.65,79.76 118.34,59.51 		"/>
		<polygon class="st97" points="107.14,39.25 83.75,39.25 72.06,59.51 83.75,79.76 107.14,79.76 118.83,59.51 		"/>
		<polygon class="st98" points="107.63,39.25 84.24,39.25 72.55,59.51 84.24,79.76 107.63,79.76 119.32,59.51 		"/>
		<polygon class="st99" points="108.12,39.25 84.73,39.25 73.03,59.51 84.73,79.76 108.12,79.76 119.81,59.51 		"/>
		<polygon class="st100" points="108.61,39.25 85.22,39.25 73.52,59.51 85.22,79.76 108.61,79.76 120.3,59.51 		"/>
		<polygon class="st101" points="109.1,39.25 85.71,39.25 74.01,59.51 85.71,79.76 109.1,79.76 120.79,59.51 		"/>
		<polygon class="st102" points="109.59,39.25 86.2,39.25 74.5,59.51 86.2,79.76 109.59,79.76 121.28,59.51 		"/>
		<polygon class="st103" points="110.07,39.25 86.69,39.25 74.99,59.51 86.69,79.76 110.07,79.76 121.77,59.51 		"/>
		<polygon class="st104" points="110.56,39.25 87.18,39.25 75.48,59.51 87.18,79.76 110.56,79.76 122.26,59.51 		"/>
		<polygon class="st105" points="111.05,39.25 87.66,39.25 75.97,59.51 87.66,79.76 111.05,79.76 122.75,59.51 		"/>
		<polygon class="st106" points="111.54,39.25 88.15,39.25 76.46,59.51 88.15,79.76 111.54,79.76 123.24,59.51 		"/>
		<polygon class="st107" points="112.03,39.25 88.64,39.25 76.95,59.51 88.64,79.76 112.03,79.76 123.73,59.51 		"/>
		<polygon class="st108" points="112.52,39.25 89.13,39.25 77.44,59.51 89.13,79.76 112.52,79.76 124.21,59.51 		"/>
		<polygon class="st109" points="113.01,39.25 89.62,39.25 77.93,59.51 89.62,79.76 113.01,79.76 124.7,59.51 		"/>
		<polygon class="st110" points="113.5,39.25 90.11,39.25 78.42,59.51 90.11,79.76 113.5,79.76 125.19,59.51 		"/>
		<polygon class="st111" points="113.99,39.25 90.6,39.25 78.91,59.51 90.6,79.76 113.99,79.76 125.68,59.51 		"/>
		<polygon class="st112" points="114.48,39.25 91.09,39.25 79.39,59.51 91.09,79.76 114.48,79.76 126.17,59.51 		"/>
		<polygon class="st113" points="114.97,39.25 91.58,39.25 79.88,59.51 91.58,79.76 114.97,79.76 126.66,59.51 		"/>
		<polygon class="st114" points="115.46,39.25 92.07,39.25 80.37,59.51 92.07,79.76 115.46,79.76 127.15,59.51 		"/>
		<polygon class="st115" points="115.94,39.25 92.56,39.25 80.86,59.51 92.56,79.76 115.94,79.76 127.64,59.51 		"/>
		<polygon class="st116" points="116.43,39.25 93.05,39.25 81.35,59.51 93.05,79.76 116.43,79.76 128.13,59.51 		"/>
		<polygon class="st117" points="116.92,39.25 93.53,39.25 81.84,59.51 93.53,79.76 116.92,79.76 128.62,59.51 		"/>
		<polygon class="st118" points="117.41,39.25 94.02,39.25 82.33,59.51 94.02,79.76 117.41,79.76 129.11,59.51 		"/>
		<polygon class="st119" points="117.9,39.25 94.51,39.25 82.82,59.51 94.51,79.76 117.9,79.76 129.6,59.51 		"/>
		<polygon class="st120" points="118.39,39.25 95,39.25 83.31,59.51 95,79.76 118.39,79.76 130.09,59.51 		"/>
		<polygon class="st121" points="118.88,39.25 95.49,39.25 83.8,59.51 95.49,79.76 118.88,79.76 130.57,59.51 		"/>
		<polygon class="st122" points="119.37,39.25 95.98,39.25 84.29,59.51 95.98,79.76 119.37,79.76 131.06,59.51 		"/>
		<polygon class="st123" points="119.86,39.25 96.47,39.25 84.78,59.51 96.47,79.76 119.86,79.76 131.55,59.51 		"/>
		<polygon class="st124" points="120.35,39.25 96.96,39.25 85.27,59.51 96.96,79.76 120.35,79.76 132.04,59.51 		"/>
		<polygon class="st125" points="120.84,39.25 97.45,39.25 85.75,59.51 97.45,79.76 120.84,79.76 132.53,59.51 		"/>
		<polygon class="st126" points="121.33,39.25 97.94,39.25 86.24,59.51 97.94,79.76 121.33,79.76 133.02,59.51 		"/>
		<polygon class="st127" points="121.82,39.25 98.43,39.25 86.73,59.51 98.43,79.76 121.82,79.76 133.51,59.51 		"/>
		<polygon class="st128" points="122.3,39.25 98.92,39.25 87.22,59.51 98.92,79.76 122.3,79.76 134,59.51 		"/>
		<polygon class="st129" points="122.79,39.25 99.41,39.25 87.71,59.51 99.41,79.76 122.79,79.76 134.49,59.51 		"/>
		<polygon class="st130" points="123.28,39.25 99.89,39.25 88.2,59.51 99.89,79.76 123.28,79.76 134.98,59.51 		"/>
		<polygon class="st131" points="123.77,39.25 100.38,39.25 88.69,59.51 100.38,79.76 123.77,79.76 135.47,59.51 		"/>
		<polygon class="st132" points="124.26,39.25 100.87,39.25 89.18,59.51 100.87,79.76 124.26,79.76 135.96,59.51 		"/>
		<polygon class="st133" points="124.75,39.25 101.36,39.25 89.67,59.51 101.36,79.76 124.75,79.76 136.44,59.51 		"/>
		<polygon class="st134" points="125.24,39.25 101.85,39.25 90.16,59.51 101.85,79.76 125.24,79.76 136.93,59.51 		"/>
		<polygon class="st135" points="125.73,39.25 102.34,39.25 90.65,59.51 102.34,79.76 125.73,79.76 137.42,59.51 		"/>
		<polygon class="st136" points="126.22,39.25 102.83,39.25 91.14,59.51 102.83,79.76 126.22,79.76 137.91,59.51 		"/>
		<polygon class="st137" points="126.71,39.25 103.32,39.25 91.62,59.51 103.32,79.76 126.71,79.76 138.4,59.51 		"/>
		<polygon class="st138" points="127.2,39.25 103.81,39.25 92.11,59.51 103.81,79.76 127.2,79.76 138.89,59.51 		"/>
		<polygon class="st139" points="127.69,39.25 104.3,39.25 92.6,59.51 104.3,79.76 127.69,79.76 139.38,59.51 		"/>
		<polygon class="st140" points="128.18,39.25 104.79,39.25 93.09,59.51 104.79,79.76 128.18,79.76 139.87,59.51 		"/>
		<polygon class="st141" points="128.66,39.25 105.28,39.25 93.58,59.51 105.28,79.76 128.66,79.76 140.36,59.51 		"/>
		<polygon class="st142" points="129.15,39.25 105.77,39.25 94.07,59.51 105.77,79.76 129.15,79.76 140.85,59.51 		"/>
		<polygon class="st143" points="129.64,39.25 106.25,39.25 94.56,59.51 106.25,79.76 129.64,79.76 141.34,59.51 		"/>
		<polygon class="st144" points="130.13,39.25 106.74,39.25 95.05,59.51 106.74,79.76 130.13,79.76 141.83,59.51 		"/>
		<polygon class="st145" points="130.62,39.25 107.23,39.25 95.54,59.51 107.23,79.76 130.62,79.76 142.32,59.51 		"/>
		<polygon class="st146" points="131.11,39.25 107.72,39.25 96.03,59.51 107.72,79.76 131.11,79.76 142.8,59.51 		"/>
		<polygon class="st147" points="131.6,39.25 108.21,39.25 96.52,59.51 108.21,79.76 131.6,79.76 143.29,59.51 		"/>
		<polygon class="st148" points="132.09,39.25 108.7,39.25 97.01,59.51 108.7,79.76 132.09,79.76 143.78,59.51 		"/>
		<polygon class="st149" points="132.58,39.25 109.19,39.25 97.5,59.51 109.19,79.76 132.58,79.76 144.27,59.51 		"/>
		<polygon class="st150" points="133.07,39.25 109.68,39.25 97.98,59.51 109.68,79.76 133.07,79.76 144.76,59.51 		"/>
		<polygon class="st151" points="133.56,39.25 110.17,39.25 98.47,59.51 110.17,79.76 133.56,79.76 145.25,59.51 		"/>
		<polygon class="st152" points="134.05,39.25 110.66,39.25 98.96,59.51 110.66,79.76 134.05,79.76 145.74,59.51 		"/>
		<polygon class="st153" points="134.53,39.25 111.15,39.25 99.45,59.51 111.15,79.76 134.53,79.76 146.23,59.51 		"/>
		<polygon class="st154" points="135.02,39.25 111.64,39.25 99.94,59.51 111.64,79.76 135.02,79.76 146.72,59.51 		"/>
		<polygon class="st155" points="135.51,39.25 112.12,39.25 100.43,59.51 112.12,79.76 135.51,79.76 147.21,59.51 		"/>
		<polygon class="st156" points="136,39.25 112.61,39.25 100.92,59.51 112.61,79.76 136,79.76 147.7,59.51 		"/>
		<polygon class="st157" points="136.49,39.25 113.1,39.25 101.41,59.51 113.1,79.76 136.49,79.76 148.19,59.51 		"/>
		<polygon class="st158" points="136.98,39.25 113.59,39.25 101.9,59.51 113.59,79.76 136.98,79.76 148.68,59.51 		"/>
		<polygon class="st159" points="137.47,39.25 114.08,39.25 102.39,59.51 114.08,79.76 137.47,79.76 149.16,59.51 		"/>
		<polygon class="st160" points="137.96,39.25 114.57,39.25 102.88,59.51 114.57,79.76 137.96,79.76 149.65,59.51 		"/>
		<polygon class="st161" points="138.45,39.25 115.06,39.25 103.37,59.51 115.06,79.76 138.45,79.76 150.14,59.51 		"/>
		<polygon class="st162" points="138.94,39.25 115.55,39.25 103.86,59.51 115.55,79.76 138.94,79.76 150.63,59.51 		"/>
		<polygon class="st163" points="139.43,39.25 116.04,39.25 104.34,59.51 116.04,79.76 139.43,79.76 151.12,59.51 		"/>
		<polygon class="st164" points="139.92,39.25 116.53,39.25 104.83,59.51 116.53,79.76 139.92,79.76 151.61,59.51 		"/>
		<polygon class="st165" points="140.41,39.25 117.02,39.25 105.32,59.51 117.02,79.76 140.41,79.76 152.1,59.51 		"/>
		<polygon class="st166" points="140.89,39.25 117.51,39.25 105.81,59.51 117.51,79.76 140.89,79.76 152.59,59.51 		"/>
		<polygon class="st167" points="141.38,39.25 118,39.25 106.3,59.51 118,79.76 141.38,79.76 153.08,59.51 		"/>
		<polygon class="st168" points="141.87,39.25 118.48,39.25 106.79,59.51 118.48,79.76 141.87,79.76 153.57,59.51 		"/>
		<polygon class="st169" points="142.36,39.25 118.97,39.25 107.28,59.51 118.97,79.76 142.36,79.76 154.06,59.51 		"/>
		<polygon class="st170" points="142.85,39.25 119.46,39.25 107.77,59.51 119.46,79.76 142.85,79.76 154.55,59.51 		"/>
		<polygon class="st171" points="143.34,39.25 119.95,39.25 108.26,59.51 119.95,79.76 143.34,79.76 155.03,59.51 		"/>
		<polygon class="st172" points="143.83,39.25 120.44,39.25 108.75,59.51 120.44,79.76 143.83,79.76 155.52,59.51 		"/>
		<polygon class="st173" points="144.32,39.25 120.93,39.25 109.24,59.51 120.93,79.76 144.32,79.76 156.01,59.51 		"/>
		<polygon class="st174" points="144.81,39.25 121.42,39.25 109.73,59.51 121.42,79.76 144.81,79.76 156.5,59.51 		"/>
		<polygon class="st175" points="145.3,39.25 121.91,39.25 110.21,59.51 121.91,79.76 145.3,79.76 156.99,59.51 		"/>
		<polygon class="st176" points="145.79,39.25 122.4,39.25 110.7,59.51 122.4,79.76 145.79,79.76 157.48,59.51 		"/>
		<polygon class="st177" points="146.28,39.25 122.89,39.25 111.19,59.51 122.89,79.76 146.28,79.76 157.97,59.51 		"/>
		<polygon class="st178" points="146.77,39.25 123.38,39.25 111.68,59.51 123.38,79.76 146.77,79.76 158.46,59.51 		"/>
		<polygon class="st179" points="147.25,39.25 123.87,39.25 112.17,59.51 123.87,79.76 147.25,79.76 158.95,59.51 		"/>
		<polygon class="st180" points="147.74,39.25 124.36,39.25 112.66,59.51 124.36,79.76 147.74,79.76 159.44,59.51 		"/>
		<polygon class="st181" points="148.23,39.25 124.84,39.25 113.15,59.51 124.84,79.76 148.23,79.76 159.93,59.51 		"/>
		<polygon class="st182" points="148.72,39.25 125.33,39.25 113.64,59.51 125.33,79.76 148.72,79.76 160.42,59.51 		"/>
		<polygon class="st183" points="149.21,39.25 125.82,39.25 114.13,59.51 125.82,79.76 149.21,79.76 160.91,59.51 		"/>
		<polygon class="st184" points="149.7,39.25 126.31,39.25 114.62,59.51 126.31,79.76 149.7,79.76 161.39,59.51 		"/>
		<polygon class="st185" points="150.19,39.25 126.8,39.25 115.11,59.51 126.8,79.76 150.19,79.76 161.88,59.51 		"/>
		<polygon class="st186" points="150.68,39.25 127.29,39.25 115.6,59.51 127.29,79.76 150.68,79.76 162.37,59.51 		"/>
		<polygon class="st187" points="151.17,39.25 127.78,39.25 116.09,59.51 127.78,79.76 151.17,79.76 162.86,59.51 		"/>
		<polygon class="st188" points="151.66,39.25 128.27,39.25 116.57,59.51 128.27,79.76 151.66,79.76 163.35,59.51 		"/>
		<polygon class="st189" points="152.15,39.25 128.76,39.25 117.06,59.51 128.76,79.76 152.15,79.76 163.84,59.51 		"/>
		<polygon class="st190" points="152.64,39.25 129.25,39.25 117.55,59.51 129.25,79.76 152.64,79.76 164.33,59.51 		"/>
		<polygon class="st191" points="153.12,39.25 129.74,39.25 118.04,59.51 129.74,79.76 153.12,79.76 164.82,59.51 		"/>
		<polygon class="st192" points="153.61,39.25 130.23,39.25 118.53,59.51 130.23,79.76 153.61,79.76 165.31,59.51 		"/>
		<polygon class="st193" points="154.1,39.25 130.71,39.25 119.02,59.51 130.71,79.76 154.1,79.76 165.8,59.51 		"/>
		<polygon class="st194" points="154.59,39.25 131.2,39.25 119.51,59.51 131.2,79.76 154.59,79.76 166.29,59.51 		"/>
		<polygon class="st195" points="155.08,39.25 131.69,39.25 120,59.51 131.69,79.76 155.08,79.76 166.78,59.51 		"/>
		<polygon class="st196" points="155.57,39.25 132.18,39.25 120.49,59.51 132.18,79.76 155.57,79.76 167.27,59.51 		"/>
		<polygon class="st197" points="156.06,39.25 132.67,39.25 120.98,59.51 132.67,79.76 156.06,79.76 167.75,59.51 		"/>
		<polygon class="st198" points="156.55,39.25 133.16,39.25 121.47,59.51 133.16,79.76 156.55,79.76 168.24,59.51 		"/>
		<polygon class="st199" points="157.04,39.25 133.65,39.25 121.96,59.51 133.65,79.76 157.04,79.76 168.73,59.51 		"/>
		<polygon class="st200" points="157.53,39.25 134.14,39.25 122.44,59.51 134.14,79.76 157.53,79.76 169.22,59.51 		"/>
		<polygon class="st201" points="158.02,39.25 134.63,39.25 122.93,59.51 134.63,79.76 158.02,79.76 169.71,59.51 		"/>
		<polygon class="st202" points="158.51,39.25 135.12,39.25 123.42,59.51 135.12,79.76 158.51,79.76 170.2,59.51 		"/>
		<polygon class="st203" points="159,39.25 135.61,39.25 123.91,59.51 135.61,79.76 159,79.76 170.69,59.51 		"/>
		<polygon class="st204" points="159.48,39.25 136.1,39.25 124.4,59.51 136.1,79.76 159.48,79.76 171.18,59.51 		"/>
		<polygon class="st205" points="159.97,39.25 136.59,39.25 124.89,59.51 136.59,79.76 159.97,79.76 171.67,59.51 		"/>
		<polygon class="st206" points="160.46,39.25 137.07,39.25 125.38,59.51 137.07,79.76 160.46,79.76 172.16,59.51 		"/>
		<polygon class="st207" points="136.83,80.19 160.22,80.19 171.91,59.94 160.22,39.68 136.83,39.68 125.14,59.94 		"/>
		<polygon class="st208" points="136.59,80.62 159.97,80.62 171.67,60.36 159.97,40.11 136.59,40.11 124.89,60.36 		"/>
		<polygon class="st209" points="136.34,81.04 159.73,81.04 171.42,60.79 159.73,40.53 136.34,40.53 124.65,60.79 		"/>
		<polygon class="st210" points="136.1,81.47 159.49,81.47 171.18,61.22 159.49,40.96 136.1,40.96 124.4,61.22 		"/>
		<polygon class="st211" points="135.85,81.9 159.24,81.9 170.94,61.64 159.24,41.39 135.85,41.39 124.16,61.64 		"/>
		<polygon class="st212" points="135.61,82.32 159,82.32 170.69,62.07 159,41.81 135.61,41.81 123.92,62.07 		"/>
		<polygon class="st213" points="135.37,82.75 158.75,82.75 170.45,62.49 158.75,42.24 135.37,42.24 123.67,62.49 		"/>
		<polygon class="st214" points="135.12,83.18 158.51,83.18 170.2,62.92 158.51,42.67 135.12,42.67 123.43,62.92 		"/>
		<polygon class="st215" points="134.88,83.6 158.27,83.6 169.96,63.35 158.27,43.09 134.88,43.09 123.18,63.35 		"/>
		<polygon class="st216" points="134.63,84.03 158.02,84.03 169.72,63.77 158.02,43.52 134.63,43.52 122.94,63.77 		"/>
		<polygon class="st217" points="134.39,84.45 157.78,84.45 169.47,64.2 157.78,43.94 134.39,43.94 122.7,64.2 		"/>
		<polygon class="st218" points="134.15,84.88 157.53,84.88 169.23,64.63 157.53,44.37 134.15,44.37 122.45,64.63 		"/>
		<polygon class="st219" points="133.9,85.31 157.29,85.31 168.98,65.05 157.29,44.8 133.9,44.8 122.21,65.05 		"/>
		<polygon class="st220" points="133.66,85.73 157.05,85.73 168.74,65.48 157.05,45.22 133.66,45.22 121.96,65.48 		"/>
		<polygon class="st221" points="133.41,86.16 156.8,86.16 168.5,65.9 156.8,45.65 133.41,45.65 121.72,65.9 		"/>
		<polygon class="st222" points="133.17,86.59 156.56,86.59 168.25,66.33 156.56,46.08 133.17,46.08 121.47,66.33 		"/>
		<polygon class="st223" points="132.92,87.01 156.31,87.01 168.01,66.76 156.31,46.5 132.92,46.5 121.23,66.76 		"/>
		<polygon class="st224" points="132.68,87.44 156.07,87.44 167.76,67.18 156.07,46.93 132.68,46.93 120.99,67.18 		"/>
		<polygon class="st225" points="132.44,87.87 155.82,87.87 167.52,67.61 155.82,47.36 132.44,47.36 120.74,67.61 		"/>
		<polygon class="st226" points="132.19,88.29 155.58,88.29 167.28,68.04 155.58,47.78 132.19,47.78 120.5,68.04 		"/>
		<polygon class="st227" points="131.95,88.72 155.34,88.72 167.03,68.46 155.34,48.21 131.95,48.21 120.25,68.46 		"/>
		<polygon class="st228" points="131.7,89.14 155.09,89.14 166.79,68.89 155.09,48.63 131.7,48.63 120.01,68.89 		"/>
		<polygon class="st229" points="131.46,89.57 154.85,89.57 166.54,69.32 154.85,49.06 131.46,49.06 119.77,69.32 		"/>
		<polygon class="st230" points="131.22,90 154.6,90 166.3,69.74 154.6,49.49 131.22,49.49 119.52,69.74 		"/>
		<polygon class="st231" points="130.97,90.42 154.36,90.42 166.05,70.17 154.36,49.91 130.97,49.91 119.28,70.17 		"/>
		<polygon class="st232" points="130.73,90.85 154.12,90.85 165.81,70.59 154.12,50.34 130.73,50.34 119.03,70.59 		"/>
		<polygon class="st233" points="130.48,91.28 153.87,91.28 165.57,71.02 153.87,50.77 130.48,50.77 118.79,71.02 		"/>
		<polygon class="st234" points="130.24,91.7 153.63,91.7 165.32,71.45 153.63,51.19 130.24,51.19 118.55,71.45 		"/>
		<polygon class="st235" points="130,92.13 153.38,92.13 165.08,71.87 153.38,51.62 130,51.62 118.3,71.87 		"/>
		<polygon class="st236" points="129.75,92.55 153.14,92.55 164.83,72.3 153.14,52.04 129.75,52.04 118.06,72.3 		"/>
		<polygon class="st237" points="129.51,92.98 152.9,92.98 164.59,72.73 152.9,52.47 129.51,52.47 117.81,72.73 		"/>
		<polygon class="st238" points="129.26,93.41 152.65,93.41 164.35,73.15 152.65,52.9 129.26,52.9 117.57,73.15 		"/>
		<polygon class="st239" points="129.02,93.83 152.41,93.83 164.1,73.58 152.41,53.32 129.02,53.32 117.32,73.58 		"/>
		<polygon class="st240" points="128.78,94.26 152.16,94.26 163.86,74 152.16,53.75 128.78,53.75 117.08,74 		"/>
		<polygon class="st241" points="128.53,94.69 151.92,94.69 163.61,74.43 151.92,54.18 128.53,54.18 116.84,74.43 		"/>
		<polygon class="st242" points="128.29,95.11 151.68,95.11 163.37,74.86 151.68,54.6 128.29,54.6 116.59,74.86 		"/>
		<polygon class="st243" points="128.04,95.54 151.43,95.54 163.13,75.28 151.43,55.03 128.04,55.03 116.35,75.28 		"/>
		<polygon class="st244" points="127.8,95.97 151.19,95.97 162.88,75.71 151.19,55.46 127.8,55.46 116.1,75.71 		"/>
		<polygon class="st245" points="127.55,96.39 150.94,96.39 162.64,76.14 150.94,55.88 127.55,55.88 115.86,76.14 		"/>
		<polygon class="st246" points="127.31,96.82 150.7,96.82 162.39,76.56 150.7,56.31 127.31,56.31 115.62,76.56 		"/>
		<polygon class="st247" points="127.07,97.24 150.45,97.24 162.15,76.99 150.45,56.73 127.07,56.73 115.37,76.99 		"/>
		<polygon class="st248" points="126.82,97.67 150.21,97.67 161.9,77.42 150.21,57.16 126.82,57.16 115.13,77.42 		"/>
		<polygon class="st249" points="126.58,98.1 149.97,98.1 161.66,77.84 149.97,57.59 126.58,57.59 114.88,77.84 		"/>
		<polygon class="st250" points="126.33,98.52 149.72,98.52 161.42,78.27 149.72,58.01 126.33,58.01 114.64,78.27 		"/>
		<polygon class="st251" points="126.09,98.95 149.48,98.95 161.17,78.69 149.48,58.44 126.09,58.44 114.4,78.69 		"/>
		<polygon class="st252" points="125.85,99.38 149.23,99.38 160.93,79.12 149.23,58.87 125.85,58.87 114.15,79.12 		"/>
		<polygon class="st253" points="125.6,99.8 148.99,99.8 160.68,79.55 148.99,59.29 125.6,59.29 113.91,79.55 		"/>
		<polygon class="st254" points="125.36,100.23 148.75,100.23 160.44,79.97 148.75,59.72 125.36,59.72 113.66,79.97 		"/>
		<polygon class="st255" points="125.11,100.65 148.5,100.65 160.2,80.4 148.5,60.14 125.11,60.14 113.42,80.4 		"/>
		<polygon class="st256" points="124.87,101.08 148.26,101.08 159.95,80.83 148.26,60.57 124.87,60.57 113.18,80.83 		"/>
		<polygon class="st257" points="124.63,101.51 148.01,101.51 159.71,81.25 148.01,61 124.63,61 112.93,81.25 		"/>
		<polygon class="st258" points="124.38,101.93 147.77,101.93 159.46,81.68 147.77,61.42 124.38,61.42 112.69,81.68 		"/>
		<polygon class="st259" points="124.14,102.36 147.53,102.36 159.22,82.1 147.53,61.85 124.14,61.85 112.44,82.1 		"/>
		<polygon class="st260" points="123.89,102.79 147.28,102.79 158.98,82.53 147.28,62.28 123.89,62.28 112.2,82.53 		"/>
		<polygon class="st261" points="123.65,103.21 147.04,103.21 158.73,82.96 147.04,62.7 123.65,62.7 111.95,82.96 		"/>
		<polygon class="st262" points="123.4,103.64 146.79,103.64 158.49,83.38 146.79,63.13 123.4,63.13 111.71,83.38 		"/>
		<polygon class="st263" points="123.16,104.07 146.55,104.07 158.24,83.81 146.55,63.56 123.16,63.56 111.47,83.81 		"/>
		<polygon class="st264" points="122.92,104.49 146.31,104.49 158,84.24 146.31,63.98 122.92,63.98 111.22,84.24 		"/>
		<polygon class="st265" points="122.67,104.92 146.06,104.92 157.76,84.66 146.06,64.41 122.67,64.41 110.98,84.66 		"/>
		<polygon class="st266" points="122.43,105.34 145.82,105.34 157.51,85.09 145.82,64.83 122.43,64.83 110.73,85.09 		"/>
		<polygon class="st267" points="122.18,105.77 145.57,105.77 157.27,85.52 145.57,65.26 122.18,65.26 110.49,85.52 		"/>
		<polygon class="st268" points="121.94,106.2 145.33,106.2 157.02,85.94 145.33,65.69 121.94,65.69 110.25,85.94 		"/>
		<polygon class="st269" points="121.7,106.62 145.08,106.62 156.78,86.37 145.08,66.11 121.7,66.11 110,86.37 		"/>
		<polygon class="st270" points="121.45,107.05 144.84,107.05 156.53,86.79 144.84,66.54 121.45,66.54 109.76,86.79 		"/>
		<polygon class="st271" points="121.21,107.48 144.6,107.48 156.29,87.22 144.6,66.97 121.21,66.97 109.51,87.22 		"/>
		<polygon class="st272" points="120.96,107.9 144.35,107.9 156.05,87.65 144.35,67.39 120.96,67.39 109.27,87.65 		"/>
		<polygon class="st273" points="120.72,108.33 144.11,108.33 155.8,88.07 144.11,67.82 120.72,67.82 109.03,88.07 		"/>
		<polygon class="st274" points="120.48,108.75 143.86,108.75 155.56,88.5 143.86,68.24 120.48,68.24 108.78,88.5 		"/>
		<polygon class="st275" points="120.23,109.18 143.62,109.18 155.31,88.93 143.62,68.67 120.23,68.67 108.54,88.93 		"/>
		<polygon class="st276" points="119.99,109.61 143.38,109.61 155.07,89.35 143.38,69.1 119.99,69.1 108.29,89.35 		"/>
		<polygon class="st277" points="119.74,110.03 143.13,110.03 154.83,89.78 143.13,69.52 119.74,69.52 108.05,89.78 		"/>
		<polygon class="st278" points="119.5,110.46 142.89,110.46 154.58,90.2 142.89,69.95 119.5,69.95 107.8,90.2 		"/>
		<polygon class="st279" points="119.26,110.89 142.64,110.89 154.34,90.63 142.64,70.38 119.26,70.38 107.56,90.63 		"/>
		<polygon class="st280" points="119.01,111.31 142.4,111.31 154.09,91.06 142.4,70.8 119.01,70.8 107.32,91.06 		"/>
		<polygon class="st281" points="118.77,111.74 142.16,111.74 153.85,91.48 142.16,71.23 118.77,71.23 107.07,91.48 		"/>
		<polygon class="st282" points="118.52,112.17 141.91,112.17 153.61,91.91 141.91,71.66 118.52,71.66 106.83,91.91 		"/>
		<polygon class="st283" points="118.28,112.59 141.67,112.59 153.36,92.34 141.67,72.08 118.28,72.08 106.58,92.34 		"/>
		<polygon class="st284" points="118.03,113.02 141.42,113.02 153.12,92.76 141.42,72.51 118.03,72.51 106.34,92.76 		"/>
		<polygon class="st285" points="117.79,113.44 141.18,113.44 152.87,93.19 141.18,72.93 117.79,72.93 106.1,93.19 		"/>
		<polygon class="st286" points="117.55,113.87 140.93,113.87 152.63,93.62 140.93,73.36 117.55,73.36 105.85,93.62 		"/>
		<polygon class="st287" points="117.3,114.3 140.69,114.3 152.38,94.04 140.69,73.79 117.3,73.79 105.61,94.04 		"/>
		<polygon class="st288" points="117.06,114.72 140.45,114.72 152.14,94.47 140.45,74.21 117.06,74.21 105.36,94.47 		"/>
		<polygon class="st289" points="116.81,115.15 140.2,115.15 151.9,94.89 140.2,74.64 116.81,74.64 105.12,94.89 		"/>
		<polygon class="st290" points="116.57,115.58 139.96,115.58 151.65,95.32 139.96,75.07 116.57,75.07 104.88,95.32 		"/>
		<polygon class="st291" points="116.33,116 139.71,116 151.41,95.75 139.71,75.49 116.33,75.49 104.63,95.75 		"/>
		<polygon class="st292" points="116.08,116.43 139.47,116.43 151.16,96.17 139.47,75.92 116.08,75.92 104.39,96.17 		"/>
		<polygon class="st293" points="115.84,116.85 139.23,116.85 150.92,96.6 139.23,76.34 115.84,76.34 104.14,96.6 		"/>
		<polygon class="st294" points="115.59,117.28 138.98,117.28 150.68,97.03 138.98,76.77 115.59,76.77 103.9,97.03 		"/>
		<polygon class="st295" points="115.35,117.71 138.74,117.71 150.43,97.45 138.74,77.2 115.35,77.2 103.66,97.45 		"/>
		<polygon class="st296" points="115.11,118.13 138.49,118.13 150.19,97.88 138.49,77.62 115.11,77.62 103.41,97.88 		"/>
		<polygon class="st297" points="114.86,118.56 138.25,118.56 149.94,98.31 138.25,78.05 114.86,78.05 103.17,98.31 		"/>
		<polygon class="st298" points="114.62,118.99 138.01,118.99 149.7,98.73 138.01,78.48 114.62,78.48 102.92,98.73 		"/>
		<polygon class="st299" points="114.37,119.41 137.76,119.41 149.46,99.16 137.76,78.9 114.37,78.9 102.68,99.16 		"/>
		<polygon class="st300" points="114.13,119.84 137.52,119.84 149.21,99.58 137.52,79.33 114.13,79.33 102.43,99.58 		"/>
		<polygon class="st301" points="113.88,120.27 137.27,120.27 148.97,100.01 137.27,79.76 113.88,79.76 102.19,100.01 		"/>
		<polygon class="st302" points="113.64,120.69 137.03,120.69 148.72,100.44 137.03,80.18 113.64,80.18 101.95,100.44 		"/>
		<polygon class="st303" points="113.4,121.12 136.79,121.12 148.48,100.86 136.79,80.61 113.4,80.61 101.7,100.86 		"/>
		<polygon class="st304" points="113.15,121.54 136.54,121.54 148.24,101.29 136.54,81.03 113.15,81.03 101.46,101.29 		"/>
		<polygon class="st305" points="112.91,121.97 136.3,121.97 147.99,101.72 136.3,81.46 112.91,81.46 101.21,101.72 		"/>
		<polygon class="st306" points="112.66,122.4 136.05,122.4 147.75,102.14 136.05,81.89 112.66,81.89 100.97,102.14 		"/>
		<polygon class="st307" points="112.42,122.82 135.81,122.82 147.5,102.57 135.81,82.31 112.42,82.31 100.73,102.57 		"/>
		<polygon class="st308" points="112.18,123.25 135.56,123.25 147.26,102.99 135.56,82.74 112.18,82.74 100.48,102.99 		"/>
		<polygon class="st309" points="111.93,123.68 135.32,123.68 147.01,103.42 135.32,83.17 111.93,83.17 100.24,103.42 		"/>
		<polygon class="st310" points="111.69,124.1 135.08,124.1 146.77,103.85 135.08,83.59 111.69,83.59 99.99,103.85 		"/>
		<polygon class="st311" points="111.44,124.53 134.83,124.53 146.53,104.27 134.83,84.02 111.44,84.02 99.75,104.27 		"/>
		<polygon class="st312" points="111.2,124.95 134.59,124.95 146.28,104.7 134.59,84.44 111.2,84.44 99.51,104.7 		"/>
		<polygon class="st313" points="110.96,125.38 134.34,125.38 146.04,105.13 134.34,84.87 110.96,84.87 99.26,105.13 		"/>
		<polygon class="st314" points="110.71,125.81 134.1,125.81 145.79,105.55 134.1,85.3 110.71,85.3 99.02,105.55 		"/>
		<polygon class="st315" points="110.47,126.23 133.86,126.23 145.55,105.98 133.86,85.72 110.47,85.72 98.77,105.98 		"/>
		<polygon class="st316" points="110.22,126.66 133.61,126.66 145.31,106.41 133.61,86.15 110.22,86.15 98.53,106.41 		"/>
		<polygon class="st317" points="109.98,127.09 133.37,127.09 145.06,106.83 133.37,86.58 109.98,86.58 98.29,106.83 		"/>
		<polygon class="st318" points="109.74,127.51 133.12,127.51 144.82,107.26 133.12,87 109.74,87 98.04,107.26 		"/>
		<polygon class="st319" points="109.49,127.94 132.88,127.94 144.57,107.68 132.88,87.43 109.49,87.43 97.8,107.68 		"/>
		<polygon class="st320" points="109.25,128.37 132.64,128.37 144.33,108.11 132.64,87.86 109.25,87.86 97.55,108.11 		"/>
		<polygon class="st321" points="109,128.79 132.39,128.79 144.09,108.54 132.39,88.28 109,88.28 97.31,108.54 		"/>
		<polygon class="st322" points="108.76,129.22 132.15,129.22 143.84,108.96 132.15,88.71 108.76,88.71 97.06,108.96 		"/>
		<polygon class="st323" points="108.51,129.64 131.9,129.64 143.6,109.39 131.9,89.13 108.51,89.13 96.82,109.39 		"/>
		<polygon class="st324" points="108.27,130.07 131.66,130.07 143.35,109.82 131.66,89.56 108.27,89.56 96.58,109.82 		"/>
		<polygon class="st325" points="108.03,130.5 131.41,130.5 143.11,110.24 131.41,89.99 108.03,89.99 96.33,110.24 		"/>
		<polygon class="st326" points="107.78,130.92 131.17,130.92 142.86,110.67 131.17,90.41 107.78,90.41 96.09,110.67 		"/>
		<polygon class="st327" points="107.54,131.35 130.93,131.35 142.62,111.09 130.93,90.84 107.54,90.84 95.84,111.09 		"/>
		<polygon class="st328" points="107.29,131.78 130.68,131.78 142.38,111.52 130.68,91.27 107.29,91.27 95.6,111.52 		"/>
		<polygon class="st329" points="107.05,132.2 130.44,132.2 142.13,111.95 130.44,91.69 107.05,91.69 95.36,111.95 		"/>
		<polygon class="st330" points="106.81,132.63 130.19,132.63 141.89,112.37 130.19,92.12 106.81,92.12 95.11,112.37 		"/>
		<polygon class="st331" points="106.56,133.05 129.95,133.05 141.64,112.8 129.95,92.54 106.56,92.54 94.87,112.8 		"/>
		<polygon class="st332" points="106.32,133.48 129.71,133.48 141.4,113.23 129.71,92.97 106.32,92.97 94.62,113.23 		"/>
		<polygon class="st333" points="106.07,133.91 129.46,133.91 141.16,113.65 129.46,93.4 106.07,93.4 94.38,113.65 		"/>
		<polygon class="st334" points="105.83,134.33 129.22,134.33 140.91,114.08 129.22,93.82 105.83,93.82 94.14,114.08 		"/>
		<polygon class="st335" points="105.59,134.76 128.97,134.76 140.67,114.51 128.97,94.25 105.59,94.25 93.89,114.51 		"/>
		<polygon class="st336" points="105.34,135.19 128.73,135.19 140.42,114.93 128.73,94.68 105.34,94.68 93.65,114.93 		"/>
		<polygon class="st337" points="105.1,135.61 128.49,135.61 140.18,115.36 128.49,95.1 105.1,95.1 93.4,115.36 		"/>
		<polygon class="st338" points="104.85,136.04 128.24,136.04 139.94,115.78 128.24,95.53 104.85,95.53 93.16,115.78 		"/>
		<polygon class="st339" points="104.61,136.47 128,136.47 139.69,116.21 128,95.96 104.61,95.96 92.91,116.21 		"/>
		<polygon class="st340" points="104.36,136.89 127.75,136.89 139.45,116.64 127.75,96.38 104.36,96.38 92.67,116.64 		"/>
		<polygon class="st341" points="104.12,137.32 127.51,137.32 139.2,117.06 127.51,96.81 104.12,96.81 92.43,117.06 		"/>
		<polygon class="st342" points="103.88,137.74 127.27,137.74 138.96,117.49 127.27,97.23 103.88,97.23 92.18,117.49 		"/>
		<polygon class="st343" points="103.63,138.17 127.02,138.17 138.72,117.92 127.02,97.66 103.63,97.66 91.94,117.92 		"/>
		<polygon class="st344" points="103.39,138.6 126.78,138.6 138.47,118.34 126.78,98.09 103.39,98.09 91.69,118.34 		"/>
		<polygon class="st345" points="103.14,139.02 126.53,139.02 138.23,118.77 126.53,98.51 103.14,98.51 91.45,118.77 		"/>
		<polygon class="st346" points="102.9,139.45 126.29,139.45 137.98,119.19 126.29,98.94 102.9,98.94 91.21,119.19 		"/>
		<polygon class="st347" points="102.66,139.88 126.04,139.88 137.74,119.62 126.04,99.37 102.66,99.37 90.96,119.62 		"/>
		<polygon class="st348" points="102.41,140.3 125.8,140.3 137.49,120.05 125.8,99.79 102.41,99.79 90.72,120.05 		"/>
		<polygon class="st349" points="102.65,140.16 126.04,140.16 137.73,119.91 126.04,99.65 102.65,99.65 90.96,119.91 		"/>
		<polygon class="st350" points="102.89,140.02 126.28,140.02 137.97,119.76 126.28,99.51 102.89,99.51 91.2,119.76 		"/>
		<polygon class="st351" points="103.13,139.88 126.52,139.88 138.21,119.62 126.52,99.37 103.13,99.37 91.44,119.62 		"/>
		<polygon class="st352" points="103.37,139.73 126.76,139.73 138.45,119.48 126.76,99.22 103.37,99.22 91.68,119.48 		"/>
		<polygon class="st353" points="103.61,139.59 127,139.59 138.69,119.34 127,99.08 103.61,99.08 91.92,119.34 		"/>
		<polygon class="st354" points="103.85,139.45 127.24,139.45 138.93,119.19 127.24,98.94 103.85,98.94 92.16,119.19 		"/>
		<polygon class="st355" points="104.09,139.31 127.48,139.31 139.17,119.05 127.48,98.8 104.09,98.8 92.4,119.05 		"/>
		<polygon class="st356" points="104.33,139.16 127.72,139.16 139.41,118.91 127.72,98.65 104.33,98.65 92.63,118.91 		"/>
		<polygon class="st357" points="104.57,139.02 127.96,139.02 139.65,118.77 127.96,98.51 104.57,98.51 92.87,118.77 		"/>
		<polygon class="st358" points="104.81,138.88 128.2,138.88 139.89,118.62 128.2,98.37 104.81,98.37 93.11,118.62 		"/>
		<polygon class="st359" points="105.05,138.74 128.44,138.74 140.13,118.48 128.44,98.23 105.05,98.23 93.35,118.48 		"/>
		<polygon class="st360" points="105.29,138.6 128.68,138.6 140.37,118.34 128.68,98.09 105.29,98.09 93.59,118.34 		"/>
		<polygon class="st361" points="105.53,138.45 128.92,138.45 140.61,118.2 128.92,97.94 105.53,97.94 93.83,118.2 		"/>
		<polygon class="st362" points="105.77,138.31 129.16,138.31 140.85,118.06 129.16,97.8 105.77,97.8 94.07,118.06 		"/>
		<polygon class="st363" points="106.01,138.17 129.4,138.17 141.09,117.91 129.4,97.66 106.01,97.66 94.31,117.91 		"/>
		<polygon class="st364" points="106.25,138.03 129.63,138.03 141.33,117.77 129.63,97.52 106.25,97.52 94.55,117.77 		"/>
		<polygon class="st365" points="106.49,137.88 129.87,137.88 141.57,117.63 129.87,97.37 106.49,97.37 94.79,117.63 		"/>
		<polygon class="st366" points="106.73,137.74 130.11,137.74 141.81,117.49 130.11,97.23 106.73,97.23 95.03,117.49 		"/>
		<polygon class="st367" points="106.97,137.6 130.35,137.6 142.05,117.34 130.35,97.09 106.97,97.09 95.27,117.34 		"/>
		<polygon class="st368" points="107.2,137.46 130.59,137.46 142.29,117.2 130.59,96.95 107.2,96.95 95.51,117.2 		"/>
		<polygon class="st369" points="107.44,137.32 130.83,137.32 142.53,117.06 130.83,96.81 107.44,96.81 95.75,117.06 		"/>
		<polygon class="st370" points="107.68,137.17 131.07,137.17 142.77,116.92 131.07,96.66 107.68,96.66 95.99,116.92 		"/>
		<polygon class="st371" points="107.92,137.03 131.31,137.03 143.01,116.78 131.31,96.52 107.92,96.52 96.23,116.78 		"/>
		<polygon class="st372" points="108.16,136.89 131.55,136.89 143.25,116.63 131.55,96.38 108.16,96.38 96.47,116.63 		"/>
		<polygon class="st373" points="108.4,136.75 131.79,136.75 143.49,116.49 131.79,96.24 108.4,96.24 96.71,116.49 		"/>
		<polygon class="st374" points="108.64,136.6 132.03,136.6 143.73,116.35 132.03,96.09 108.64,96.09 96.95,116.35 		"/>
		<polygon class="st375" points="108.88,136.46 132.27,136.46 143.96,116.21 132.27,95.95 108.88,95.95 97.19,116.21 		"/>
		<polygon class="st376" points="109.12,136.32 132.51,136.32 144.2,116.06 132.51,95.81 109.12,95.81 97.43,116.06 		"/>
		<polygon class="st377" points="109.36,136.18 132.75,136.18 144.44,115.92 132.75,95.67 109.36,95.67 97.67,115.92 		"/>
		<polygon class="st378" points="109.6,136.04 132.99,136.04 144.68,115.78 132.99,95.53 109.6,95.53 97.91,115.78 		"/>
		<polygon class="st379" points="109.84,135.89 133.23,135.89 144.92,115.64 133.23,95.38 109.84,95.38 98.15,115.64 		"/>
		<polygon class="st380" points="110.08,135.75 133.47,135.75 145.16,115.5 133.47,95.24 110.08,95.24 98.39,115.5 		"/>
		<polygon class="st381" points="110.32,135.61 133.71,135.61 145.4,115.35 133.71,95.1 110.32,95.1 98.63,115.35 		"/>
		<polygon class="st382" points="110.56,135.47 133.95,135.47 145.64,115.21 133.95,94.96 110.56,94.96 98.87,115.21 		"/>
		<polygon class="st383" points="110.8,135.32 134.19,135.32 145.88,115.07 134.19,94.81 110.8,94.81 99.11,115.07 		"/>
		<polygon class="st384" points="111.04,135.18 134.43,135.18 146.12,114.93 134.43,94.67 111.04,94.67 99.34,114.93 		"/>
		<polygon class="st385" points="111.28,135.04 134.67,135.04 146.36,114.78 134.67,94.53 111.28,94.53 99.58,114.78 		"/>
		<polygon class="st386" points="111.52,134.9 134.91,134.9 146.6,114.64 134.91,94.39 111.52,94.39 99.82,114.64 		"/>
		<polygon class="st387" points="111.76,134.75 135.15,134.75 146.84,114.5 135.15,94.24 111.76,94.24 100.06,114.5 		"/>
		<polygon class="st388" points="112,134.61 135.39,134.61 147.08,114.36 135.39,94.1 112,94.1 100.3,114.36 		"/>
		<polygon class="st389" points="112.24,134.47 135.63,134.47 147.32,114.22 135.63,93.96 112.24,93.96 100.54,114.22 		"/>
		<polygon class="st390" points="112.48,134.33 135.87,134.33 147.56,114.07 135.87,93.82 112.48,93.82 100.78,114.07 		"/>
		<polygon class="st391" points="112.72,134.19 136.1,134.19 147.8,113.93 136.1,93.68 112.72,93.68 101.02,113.93 		"/>
		<polygon class="st392" points="112.96,134.04 136.34,134.04 148.04,113.79 136.34,93.53 112.96,93.53 101.26,113.79 		"/>
		<polygon class="st393" points="113.2,133.9 136.58,133.9 148.28,113.65 136.58,93.39 113.2,93.39 101.5,113.65 		"/>
		<polygon class="st394" points="113.44,133.76 136.82,133.76 148.52,113.5 136.82,93.25 113.44,93.25 101.74,113.5 		"/>
		<polygon class="st395" points="113.68,133.62 137.06,133.62 148.76,113.36 137.06,93.11 113.68,93.11 101.98,113.36 		"/>
		<polygon class="st396" points="113.91,133.47 137.3,133.47 149,113.22 137.3,92.96 113.91,92.96 102.22,113.22 		"/>
		<polygon class="st397" points="114.15,133.33 137.54,133.33 149.24,113.08 137.54,92.82 114.15,92.82 102.46,113.08 		"/>
		<polygon class="st398" points="114.39,133.19 137.78,133.19 149.48,112.94 137.78,92.68 114.39,92.68 102.7,112.94 		"/>
		<polygon class="st399" points="114.63,133.05 138.02,133.05 149.72,112.79 138.02,92.54 114.63,92.54 102.94,112.79 		"/>
		<polygon class="st400" points="114.87,132.91 138.26,132.91 149.96,112.65 138.26,92.4 114.87,92.4 103.18,112.65 		"/>
		<polygon class="st401" points="115.11,132.76 138.5,132.76 150.2,112.51 138.5,92.25 115.11,92.25 103.42,112.51 		"/>
		<polygon class="st402" points="115.35,132.62 138.74,132.62 150.44,112.37 138.74,92.11 115.35,92.11 103.66,112.37 		"/>
		<polygon class="st403" points="115.59,132.48 138.98,132.48 150.67,112.22 138.98,91.97 115.59,91.97 103.9,112.22 		"/>
		<polygon class="st404" points="115.83,132.34 139.22,132.34 150.91,112.08 139.22,91.83 115.83,91.83 104.14,112.08 		"/>
		<polygon class="st405" points="116.07,132.19 139.46,132.19 151.15,111.94 139.46,91.68 116.07,91.68 104.38,111.94 		"/>
		<polygon class="st406" points="116.31,132.05 139.7,132.05 151.39,111.8 139.7,91.54 116.31,91.54 104.62,111.8 		"/>
		<polygon class="st407" points="116.55,131.91 139.94,131.91 151.63,111.66 139.94,91.4 116.55,91.4 104.86,111.66 		"/>
		<polygon class="st408" points="116.79,131.77 140.18,131.77 151.87,111.51 140.18,91.26 116.79,91.26 105.1,111.51 		"/>
		<polygon class="st409" points="117.03,131.63 140.42,131.63 152.11,111.37 140.42,91.12 117.03,91.12 105.34,111.37 		"/>
		<polygon class="st410" points="117.27,131.48 140.66,131.48 152.35,111.23 140.66,90.97 117.27,90.97 105.58,111.23 		"/>
		<polygon class="st411" points="117.51,131.34 140.9,131.34 152.59,111.09 140.9,90.83 117.51,90.83 105.82,111.09 		"/>
		<polygon class="st412" points="117.75,131.2 141.14,131.2 152.83,110.94 141.14,90.69 117.75,90.69 106.05,110.94 		"/>
		<polygon class="st413" points="117.99,131.06 141.38,131.06 153.07,110.8 141.38,90.55 117.99,90.55 106.29,110.8 		"/>
		<polygon class="st414" points="118.23,130.91 141.62,130.91 153.31,110.66 141.62,90.4 118.23,90.4 106.53,110.66 		"/>
		<polygon class="st415" points="118.47,130.77 141.86,130.77 153.55,110.52 141.86,90.26 118.47,90.26 106.77,110.52 		"/>
		<polygon class="st416" points="118.71,130.63 142.1,130.63 153.79,110.38 142.1,90.12 118.71,90.12 107.01,110.38 		"/>
		<polygon class="st417" points="118.95,130.49 142.34,130.49 154.03,110.23 142.34,89.98 118.95,89.98 107.25,110.23 		"/>
		<polygon class="st418" points="119.19,130.35 142.58,130.35 154.27,110.09 142.58,89.84 119.19,89.84 107.49,110.09 		"/>
		<polygon class="st419" points="119.43,130.2 142.81,130.2 154.51,109.95 142.81,89.69 119.43,89.69 107.73,109.95 		"/>
		<polygon class="st420" points="119.67,130.06 143.05,130.06 154.75,109.81 143.05,89.55 119.67,89.55 107.97,109.81 		"/>
		<polygon class="st421" points="119.91,129.92 143.29,129.92 154.99,109.66 143.29,89.41 119.91,89.41 108.21,109.66 		"/>
		<polygon class="st422" points="120.15,129.78 143.53,129.78 155.23,109.52 143.53,89.27 120.15,89.27 108.45,109.52 		"/>
		<polygon class="st423" points="120.38,129.63 143.77,129.63 155.47,109.38 143.77,89.12 120.38,89.12 108.69,109.38 		"/>
		<polygon class="st424" points="120.62,129.49 144.01,129.49 155.71,109.24 144.01,88.98 120.62,88.98 108.93,109.24 		"/>
		<polygon class="st425" points="120.86,129.35 144.25,129.35 155.95,109.09 144.25,88.84 120.86,88.84 109.17,109.09 		"/>
		<polygon class="st426" points="121.1,129.21 144.49,129.21 156.19,108.95 144.49,88.7 121.1,88.7 109.41,108.95 		"/>
		<polygon class="st427" points="121.34,129.07 144.73,129.07 156.43,108.81 144.73,88.56 121.34,88.56 109.65,108.81 		"/>
		<polygon class="st428" points="121.58,128.92 144.97,128.92 156.67,108.67 144.97,88.41 121.58,88.41 109.89,108.67 		"/>
		<polygon class="st429" points="121.82,128.78 145.21,128.78 156.91,108.53 145.21,88.27 121.82,88.27 110.13,108.53 		"/>
		<polygon class="st430" points="122.06,128.64 145.45,128.64 157.15,108.38 145.45,88.13 122.06,88.13 110.37,108.38 		"/>
		<polygon class="st431" points="122.3,128.5 145.69,128.5 157.38,108.24 145.69,87.99 122.3,87.99 110.61,108.24 		"/>
		<polygon class="st432" points="122.54,128.35 145.93,128.35 157.62,108.1 145.93,87.84 122.54,87.84 110.85,108.1 		"/>
		<polygon class="st433" points="122.78,128.21 146.17,128.21 157.86,107.96 146.17,87.7 122.78,87.7 111.09,107.96 		"/>
		<polygon class="st434" points="123.02,128.07 146.41,128.07 158.1,107.81 146.41,87.56 123.02,87.56 111.33,107.81 		"/>
		<polygon class="st435" points="123.26,127.93 146.65,127.93 158.34,107.67 146.65,87.42 123.26,87.42 111.57,107.67 		"/>
		<polygon class="st436" points="123.5,127.79 146.89,127.79 158.58,107.53 146.89,87.28 123.5,87.28 111.81,107.53 		"/>
		<polygon class="st437" points="123.74,127.64 147.13,127.64 158.82,107.39 147.13,87.13 123.74,87.13 112.05,107.39 		"/>
		<polygon class="st438" points="123.98,127.5 147.37,127.5 159.06,107.25 147.37,86.99 123.98,86.99 112.29,107.25 		"/>
		<polygon class="st439" points="124.22,127.36 147.61,127.36 159.3,107.1 147.61,86.85 124.22,86.85 112.52,107.1 		"/>
		<polygon class="st440" points="124.46,127.22 147.85,127.22 159.54,106.96 147.85,86.71 124.46,86.71 112.76,106.96 		"/>
		<polygon class="st441" points="124.7,127.07 148.09,127.07 159.78,106.82 148.09,86.56 124.7,86.56 113,106.82 		"/>
		<polygon class="st442" points="124.94,126.93 148.33,126.93 160.02,106.68 148.33,86.42 124.94,86.42 113.24,106.68 		"/>
		<polygon class="st443" points="125.18,126.79 148.57,126.79 160.26,106.53 148.57,86.28 125.18,86.28 113.48,106.53 		"/>
		<polygon class="st444" points="125.42,126.65 148.81,126.65 160.5,106.39 148.81,86.14 125.42,86.14 113.72,106.39 		"/>
		<polygon class="st445" points="125.66,126.51 149.05,126.51 160.74,106.25 149.05,86 125.66,86 113.96,106.25 		"/>
		<polygon class="st446" points="125.9,126.36 149.28,126.36 160.98,106.11 149.28,85.85 125.9,85.85 114.2,106.11 		"/>
		<polygon class="st447" points="126.14,126.22 149.52,126.22 161.22,105.97 149.52,85.71 126.14,85.71 114.44,105.97 		"/>
		<polygon class="st448" points="126.38,126.08 149.76,126.08 161.46,105.82 149.76,85.57 126.38,85.57 114.68,105.82 		"/>
		<polygon class="st449" points="126.62,125.94 150,125.94 161.7,105.68 150,85.43 126.62,85.43 114.92,105.68 		"/>
		<polygon class="st450" points="126.86,125.79 150.24,125.79 161.94,105.54 150.24,85.28 126.86,85.28 115.16,105.54 		"/>
		<polygon class="st451" points="127.09,125.65 150.48,125.65 162.18,105.4 150.48,85.14 127.09,85.14 115.4,105.4 		"/>
		<polygon class="st452" points="127.33,125.51 150.72,125.51 162.42,105.25 150.72,85 127.33,85 115.64,105.25 		"/>
		<polygon class="st453" points="127.57,125.37 150.96,125.37 162.66,105.11 150.96,84.86 127.57,84.86 115.88,105.11 		"/>
		<polygon class="st454" points="127.81,125.22 151.2,125.22 162.9,104.97 151.2,84.71 127.81,84.71 116.12,104.97 		"/>
		<polygon class="st455" points="128.05,125.08 151.44,125.08 163.14,104.83 151.44,84.57 128.05,84.57 116.36,104.83 		"/>
		<polygon class="st456" points="128.29,124.94 151.68,124.94 163.38,104.69 151.68,84.43 128.29,84.43 116.6,104.69 		"/>
		<polygon class="st457" points="128.53,124.8 151.92,124.8 163.62,104.54 151.92,84.29 128.53,84.29 116.84,104.54 		"/>
		<polygon class="st458" points="128.77,124.66 152.16,124.66 163.85,104.4 152.16,84.15 128.77,84.15 117.08,104.4 		"/>
		<polygon class="st459" points="129.01,124.51 152.4,124.51 164.09,104.26 152.4,84 129.01,84 117.32,104.26 		"/>
		<polygon class="st460" points="129.25,124.37 152.64,124.37 164.33,104.12 152.64,83.86 129.25,83.86 117.56,104.12 		"/>
		<polygon class="st461" points="129.49,124.23 152.88,124.23 164.57,103.97 152.88,83.72 129.49,83.72 117.8,103.97 		"/>
		<polygon class="st462" points="129.73,124.09 153.12,124.09 164.81,103.83 153.12,83.58 129.73,83.58 118.04,103.83 		"/>
		<polygon class="st463" points="129.97,123.94 153.36,123.94 165.05,103.69 153.36,83.43 129.97,83.43 118.28,103.69 		"/>
		<polygon class="st464" points="130.21,123.8 153.6,123.8 165.29,103.55 153.6,83.29 130.21,83.29 118.52,103.55 		"/>
		<polygon class="st465" points="130.45,123.66 153.84,123.66 165.53,103.41 153.84,83.15 130.45,83.15 118.76,103.41 		"/>
		<polygon class="st466" points="130.69,123.52 154.08,123.52 165.77,103.26 154.08,83.01 130.69,83.01 119,103.26 		"/>
		<polygon class="st467" points="130.93,123.38 154.32,123.38 166.01,103.12 154.32,82.87 130.93,82.87 119.23,103.12 		"/>
		<polygon class="st468" points="131.17,123.23 154.56,123.23 166.25,102.98 154.56,82.72 131.17,82.72 119.47,102.98 		"/>
		<polygon class="st469" points="131.41,123.09 154.8,123.09 166.49,102.84 154.8,82.58 131.41,82.58 119.71,102.84 		"/>
		<polygon class="st470" points="131.65,122.95 155.04,122.95 166.73,102.69 155.04,82.44 131.65,82.44 119.95,102.69 		"/>
		<polygon class="st471" points="131.89,122.81 155.28,122.81 166.97,102.55 155.28,82.3 131.89,82.3 120.19,102.55 		"/>
		<polygon class="st472" points="132.13,122.66 155.52,122.66 167.21,102.41 155.52,82.15 132.13,82.15 120.43,102.41 		"/>
		<polygon class="st473" points="132.37,122.52 155.76,122.52 167.45,102.27 155.76,82.01 132.37,82.01 120.67,102.27 		"/>
		<polygon class="st474" points="132.61,122.38 155.99,122.38 167.69,102.13 155.99,81.87 132.61,81.87 120.91,102.13 		"/>
		<polygon class="st475" points="132.85,122.24 156.23,122.24 167.93,101.98 156.23,81.73 132.85,81.73 121.15,101.98 		"/>
		<polygon class="st476" points="133.09,122.1 156.47,122.1 168.17,101.84 156.47,81.59 133.09,81.59 121.39,101.84 		"/>
		<polygon class="st477" points="133.33,121.95 156.71,121.95 168.41,101.7 156.71,81.44 133.33,81.44 121.63,101.7 		"/>
		<polygon class="st478" points="133.56,121.81 156.95,121.81 168.65,101.56 156.95,81.3 133.56,81.3 121.87,101.56 		"/>
		<polygon class="st479" points="133.8,121.67 157.19,121.67 168.89,101.41 157.19,81.16 133.8,81.16 122.11,101.41 		"/>
		<polygon class="st480" points="134.04,121.53 157.43,121.53 169.13,101.27 157.43,81.02 134.04,81.02 122.35,101.27 		"/>
		<polygon class="st481" points="134.28,121.38 157.67,121.38 169.37,101.13 157.67,80.87 134.28,80.87 122.59,101.13 		"/>
		<polygon class="st10" points="134.52,121.24 157.91,121.24 169.61,100.99 157.91,80.73 134.52,80.73 122.83,100.99 		"/>
		<polygon class="st9" points="134.76,121.1 158.15,121.1 169.85,100.84 158.15,80.59 134.76,80.59 123.07,100.84 		"/>
		<polygon class="st482" points="135,120.96 158.39,120.96 170.09,100.7 158.39,80.45 135,80.45 123.31,100.7 		"/>
		<polygon class="st7" points="135.24,120.82 158.63,120.82 170.33,100.56 158.63,80.31 135.24,80.31 123.55,100.56 		"/>
		<polygon class="st6" points="135.48,120.67 158.87,120.67 170.56,100.42 158.87,80.16 135.48,80.16 123.79,100.42 		"/>
		<polygon class="st483" points="135.72,120.53 159.11,120.53 170.8,100.28 159.11,80.02 135.72,80.02 124.03,100.28 		"/>
		<polygon class="st4" points="135.96,120.39 159.35,120.39 171.04,100.13 159.35,79.88 135.96,79.88 124.27,100.13 		"/>
		<polygon class="st3" points="136.2,120.25 159.59,120.25 171.28,99.99 159.59,79.74 136.2,79.74 124.51,99.99 		"/>
		<polygon class="st2" points="136.44,120.1 159.83,120.1 171.52,99.85 159.83,79.59 136.44,79.59 124.75,99.85 		"/>
		<polygon class="st1" points="136.68,119.96 160.07,119.96 171.76,99.71 160.07,79.45 136.68,79.45 124.99,99.71 		"/>
		<polygon class="st0" points="136.92,119.82 160.31,119.82 172,99.56 160.31,79.31 136.92,79.31 125.23,99.56 		"/>
		<polygon class="st0" points="102.41,119.82 125.8,119.82 137.49,99.56 125.8,79.31 102.41,79.31 90.72,99.56 		"/>
		<polygon class="st0" points="67.9,119.82 91.29,119.82 102.99,99.56 91.29,79.31 67.9,79.31 56.21,99.56 		"/>
	</g>
	<rect x="50.97" y="19" class="st484" width="148.07" height="27"/>
	<text transform="matrix(1 0 0 1 50.9666 38.8818)" class="st485 st486 st487">WebComp</text>
	<rect x="72.05" y="52.08" class="st484" width="84.05" height="18.81"/>
	<text transform="matrix(1 0 0 1 72.0452 65.3301)" class="st485 st486 st488">Solutions</text>
	<line class="st489" x1="56.42" y1="99.79" x2="172.03" y2="100.02"/>
</g>
</svg>
